<svg width="60" height="60" fill="none" xmlns="http://www.w3.org/2000/svg"><path d="M24.347 13.791c-1.779-.847-2.19-3.432-.806-4.81.896-.892 1.912-.942 3.112-.955l5.353-.005c.738 0 2.195-.079 2.84.069 2.88.658 3.294 4.239.67 5.775.04 2.419.044 4.855.004 7.274-.014.838-.15 1.672-.21 2.508-.308 4.395 2.308 7.654 4.589 11.16a418.29 418.29 0 0 0 5.669 8.443c1.495 2.18 5.115 6.303 2.522 8.836-2.214 2.164-6.639 1.905-9.537 1.904H19.836c-2.524 0-6.023-.019-7.89-1.85-2.651-2.602.947-6.652 2.527-8.971l5.37-8.04c1.856-2.8 4.272-5.821 4.718-9.247.196-1.503-.16-2.954-.207-4.45-.028-.882-.007-1.77-.008-2.652v-4.99Zm1.417-4.426c-1.724.155-2.274 2.138-1.063 3.086.52.408 1.185.316 1.806.314l1.977-.004c1.95 0 3.91.044 5.859-.01 1.674-.103 2.033-2.137.936-3.022-.622-.501-1.43-.375-2.181-.376h-5.656c-.552.001-1.128-.03-1.678.012Zm-.088 4.73-.006 4.395c0 .831-.023 1.672.013 2.503.068 1.572.445 3.121.286 4.7-.41 4.093-3.387 7.816-5.613 11.125-2.184 3.245-4.425 6.545-6.558 9.813-.861 1.32-2.248 3.19-.856 4.596 1.34 1.352 4.685 1.444 6.538 1.451l19.161.002c1.45 0 2.894.005 4.34-.098 2.218-.156 5.653-1.07 4.374-3.939-.775-1.738-2.541-4.027-3.636-5.632l-6.261-9.402c-.914-1.378-1.83-2.718-2.43-4.268l-.548-1.342c-.228-.81-.405-1.692-.447-2.534-.084-1.233-.084-1.448-.084-1.448.043-.774.125-1.528.221-2.296l-.006-1.385c.002-.831.012-1.663-.008-2.494l.04-1.432c.037-.768-.049-1.53 0-2.303l-5.763.003c-.916 0-1.842-.034-2.758-.016Z" fill="#4F84E0" stroke="#4F84E0" stroke-width=".55"/><path d="M37.97 51c-1.612-.034-3.228-.01-4.841-.01h-11.94c-2.013.002-5.835.164-6.168-2.377-.19-1.444.974-2.737 1.788-3.848l2.286-3.067c.975-1.282 2.095-3.491 3.892-3.685 1.147-.101 2.07.427 3.148.643 1.673.335 5.98.304 7.522.034 1.72-.301 3.332-1.37 4.904.007.984.861 3.638 4.703 4.62 6.019 1.026 1.376 2.776 3.56 1.167 5.133-1.372 1.342-4.532 1.122-6.377 1.151Zm-1.403-11.732c-.88.114-1.711.48-2.594.63-1.803.305-6.767.347-8.49-.1-1.51-.392-2.44-1.085-3.575.32-.84 1.037-1.583 2.156-2.385 3.222L17.89 45.5c-.631.84-2.402 2.818-.988 3.703 1.167.73 4.328.53 5.77.54l15.397-.002c1.17 0 4.36.145 5.234-.708 1.016-.992-.539-2.64-1.157-3.476-.799-1.079-1.624-2.14-2.439-3.208l-1.14-1.512c-.466-.62-1.028-1.669-2-1.57Z" fill="#4F84E0" stroke="#4F84E0" stroke-width=".55"/></svg>