<svg width="60" height="60" fill="none" xmlns="http://www.w3.org/2000/svg"><path d="M18.037 7.051s2.772.003 5.211 0c1.566.007 1.786.003 3.279.003.94 0 2.286-.339 2.633.683-.167.777-.597.885-1.342.891.044 3.563.004 7.132.005 10.696v4.239c0 1.454.145 3.349-.282 4.717-.704 2.252-2.631 3.657-4.928 3.935-.325.04-1.307.05-1.53.184v6.457c0 4.47-1.686 8.188.323 11.444.926 1.503 2.82 2.355 4.556 1.98 2.082-.452 2.826-2.543 3.881-4.117 2.225-3.318 4.742-3.798 8.441-4.804 4.858-1.32 9.706-5.863 10.917-11.24-1.456-.112-1.417.026-2.138-.334-1.486-.615-2.553-2.8-3.259-4.273-.647-1.35-.508-3.168.984-3.871-.39-.561-2.064-2.847-.646-3.173.597-.138 1.004.719 1.25 1.135l.488.827c.063.109.142.315.25.377l.074-.034c.76-.44 1.71-.516 2.52-.155 1.213.542 1.568 1.897 2.104 2.984.701 1.421 1.54 2.742.792 4.366l.015.026c-.015.49-.807 1.273-.807 1.273s.534.65-1.377 4.573c-1.405 2.884-6.489 7.841-11.287 9.167-1.69.467-3.54.86-5 1.875-2.535 1.762-2.789 4.778-5.37 6.354-2.77 1.692-6.29.241-7.87-2.374-1.921-3.18-.392-7.503-.392-12.006V32.47c-.026-.058-1.52-.144-1.785-.178-2.4-.308-4.45-2.13-4.905-4.523-.162-.858-.097-1.805-.097-2.678V13.375c0-1.563-.03-3.131.032-4.692-1.955-.021-1.412-1.507-.726-1.606.608-.087 1.317-.024 1.94-.024l4.046-.002Zm1.553.007.708-.003c.097-.003 2.188.055 2.267-.003 1.687 0-2.976.006-2.976.006Zm-5.268 1.564c-.014 1.56.031 3.127-.021 4.687 1.404-.315 2.788-.415 4.203-.083 2.127.498 5.015 2.73 7.143 1.672a6.88 6.88 0 0 0 .612-.424c.064-1.936.063-3.915.006-5.851l-11.943-.001Zm1.938 5.96c-.663.066-1.276.293-1.926.42-.04 1.001-.018 2.009-.018 3.01l-.002 7.66c0 .59-.042 1.213.064 1.795.406 2.232 2.486 3.341 4.616 3.413 1.708.057 3.607.095 5.142-.75 2.408-1.44 2.14-3.361 2.139-5.773V19.48c0-1.038-.04-2.096.05-3.13-3.89 1.659-6.555-2.2-10.065-1.77Zm31.368 9.358c-.63.206-2.23 1.093-2.533 1.675-.296.57.205 1.332.458 1.83.468.917 1.057 2.657 2.231 2.818.738.022 1.424-.059 1.984-.588 1.105-1.045.2-2.287-.317-3.354-.343-.709-.84-2.417-1.823-2.38Z" fill="#4F84E0"/><path d="M18.037 7.051s2.772.003 5.211 0m-5.21 0-4.047.002c-.623 0-1.332-.063-1.94.024-.687.099-1.23 1.585.726 1.606-.062 1.561-.031 3.13-.031 4.692l-.001 11.716c0 .873-.065 1.82.097 2.678.455 2.394 2.505 4.215 4.905 4.523.264.034 1.759.12 1.785.178v6.386c0 4.503-1.529 8.825.392 12.006 1.58 2.615 5.1 4.066 7.87 2.374 2.581-1.576 2.835-4.592 5.37-6.354 1.46-1.016 3.31-1.408 5-1.875 4.798-1.326 9.882-6.283 11.287-9.167 1.911-3.922 1.377-4.574 1.377-4.574s.792-.782.807-1.272l-.015-.026c.748-1.624-.09-2.945-.792-4.366-.537-1.087-.891-2.442-2.104-2.984-.81-.36-1.76-.284-2.52.155l-.075.034c-.107-.062-.186-.268-.249-.377l-.487-.827c-.247-.416-.654-1.273-1.251-1.135-1.418.326.255 2.612.646 3.173-1.492.704-1.63 2.52-.983 3.871.705 1.473 1.772 3.658 3.258 4.273.721.36.682.222 2.138.333-1.211 5.378-6.059 9.92-10.917 11.241-3.699 1.006-6.216 1.486-8.441 4.804-1.055 1.574-1.8 3.665-3.88 4.116-1.736.376-3.63-.477-4.558-1.979-2.008-3.256-.321-6.973-.321-11.444v-6.457c.222-.134 1.204-.145 1.53-.184 2.296-.278 4.223-1.683 4.927-3.935.427-1.369.282-3.263.282-4.717v-4.24c0-3.563.039-7.132-.005-10.695.745-.006 1.175-.114 1.342-.89-.347-1.023-1.694-.684-2.633-.684-1.493 0-1.713.004-3.279-.003m-5.21 0 1.552.007m3.658-.007-2.95.004m-.708.003.708-.003m-.708.003s4.662-.006 2.975-.006c-.079.058-2.17 0-2.267.003m-5.976 1.567c-.014 1.56.031 3.127-.021 4.687 1.404-.315 2.788-.415 4.203-.083 2.127.498 5.015 2.73 7.143 1.672a6.88 6.88 0 0 0 .612-.424c.064-1.936.063-3.915.006-5.851l-11.943-.001Zm1.938 5.96c-.663.066-1.276.293-1.926.42-.04 1.001-.018 2.009-.018 3.01l-.002 7.66c0 .59-.042 1.213.064 1.795.406 2.232 2.486 3.341 4.616 3.413 1.708.057 3.607.095 5.142-.75 2.408-1.44 2.14-3.361 2.139-5.773V19.48c0-1.038-.04-2.096.05-3.13-3.89 1.659-6.555-2.2-10.065-1.77Zm31.368 9.358c-.63.206-2.23 1.093-2.533 1.675-.296.57.205 1.332.458 1.83.468.917 1.057 2.657 2.231 2.818.738.022 1.424-.059 1.984-.588 1.105-1.045.2-2.287-.317-3.354-.343-.709-.84-2.417-1.823-2.38Z" stroke="#4F84E0" stroke-width=".55"/><path d="M19.911 22.31c-.423.003-1.015.102-1.36-.196-.494-.428-.228-1.195.37-1.328.76-.17 2.704-.03 3.595-.066.711-.044 1.522 0 1.553.903.03.9-1.371.686-1.916.682l-2.242.005Zm3.419 3.516c-.582-.011-2.95.111-3.354-.133-.739-.447-.256-1.33.45-1.429.847-.034 2.242-.087 3.063.027.693.498.75 1.521-.16 1.535Z" fill="#4F84E0" stroke="#4F84E0" stroke-width=".5"/></svg>