<svg width="60" height="60" fill="none" xmlns="http://www.w3.org/2000/svg"><path d="M46.858 11.074c-.601-.847-1.16-2.46.249-2.778 2.05-.132 6.05 3.226 6.54 4.79.232.74.053 1.539-.773 1.753-.87.225-1.76-.35-2.464-.78-1.15.723-3.155 3.166-4.219 4.22.786 1.086 4.153 5.793.94 6.111-1.104.11-2.241-.622-3.061-1.283-2.245 2.512-4.744 5.016-7.123 7.394l-9.93 9.981c-2.168 2.207-4.747 5.234-8.157 5.095-.21-.008-.435-.015-.638-.078-1.49 1.056-2.34 2.807-4.423 2.005-1.552 1.475-3.141 2.918-4.707 4.379l-2.046 1.886c-.372.343-.842.862-1.278 1.1-.285.01-.533-.002-.75-.216-.598-.59.428-1.3.807-1.656l1.55-1.438c1.842-1.688 3.725-3.35 5.51-5.098-.916-1.934 1.232-2.956 1.916-4.1.298-.498.27-1.207.412-1.766.642-2.507 2.415-4.343 4.248-6.053L36.94 17.75c.424-.413.838-.843 1.303-1.21-.678-1.291-1.642-4.321.777-4.357 1.392-.02 3.142 1.65 4.093 2.584l3.746-3.693Zm.828-1.427c.176.42.766 1.374.6 1.815-.202.535-3.554 3.528-4.188 4.375.43.439.813.914 1.201 1.39a97.88 97.88 0 0 1 1.66-1.75c.638-.67 1.973-2.145 2.701-2.596.927-.574 1.715.286 2.58.554-.56-1.135-3.325-3.469-4.554-3.788Zm-8.86 3.918c-.126 1.248.703 2.186 1.016 3.336-.386.526-.984.927-1.458 1.377L23.655 32.472c-.956.918-1.9 1.853-2.868 2.759-1.723 1.613-3.65 3.247-4.217 5.66-.156.662-.085 1.37-.44 1.977-.342.586-3.434 3.088-1.31 3.488 1.041-.273 1.808-1.65 2.795-2.122.445-.214 1.23-.005 1.732-.023 1.492-.056 3.545-1.42 4.56-2.504l1.013-1.046c.383-.416.817-.778 1.176-1.216-.429-.464-1.276-1.295-1.568-1.797-.197-.59.373-1.255.979-.9.371.219 1.163 1.321 1.58 1.763.505-.531 1.015-1.059 1.512-1.598l1.029-.988c.408-.426.822-.847 1.243-1.26-.43-.512-1.648-1.652-1.586-2.229.039-.354.38-.68.747-.633.471.06 1.44 1.401 1.865 1.841.5-.482.997-.962 1.47-1.471l.975-1.006c.42-.443.898-.848 1.29-1.314-.525-.581-2.213-1.97-1.344-2.726.674-.586 1.902 1.14 2.325 1.715 1.354-1.335 2.703-2.666 3.992-4.064l2.1-2.27c.278-.297.695-1 1.15-.994.803.012 1.868 1.402 3.27 1.52-.524-2.821-4.877-7.533-7.027-8.996-.387-.264-.792-.481-1.272-.473Z" fill="#4F84E0" stroke="#4F84E0" stroke-width=".55"/></svg>