<svg width="216" height="66" fill="none" xmlns="http://www.w3.org/2000/svg"><circle cx="30.857" cy="31" r="27.771" stroke="#4F84E0" stroke-width="6.171"/><path d="M20.588 38.657V23.97h4.91v5.183h4.49V23.97h4.91v14.688h-4.91v-5.266h-4.49v5.266h-4.91Zm19.529 0 6.19-14.793h4.868l6.19 14.793h-5.33l-.776-1.972h-5.14l-.756 1.972h-5.246Zm7.24-5.455h2.685l-1.343-3.567-1.343 3.567Zm15.229 5.455V23.97h6.61c3.902 0 6.567 1.742 6.567 5.225v.042c0 3.546-2.707 5.434-6.673 5.434h-1.594v3.987h-4.91Zm4.91-7.49h1.322c1.258 0 2.098-.546 2.098-1.616v-.042c0-1.07-.756-1.616-2.078-1.616h-1.342v3.273Zm13.927 7.49V23.97h4.91v5.75l4.196-5.75h5.708l-5.666 7.134 5.854 7.554h-5.959l-4.133-5.623v5.623h-4.91Zm26.229.315c-4.532 0-7.995-3.336-7.995-7.617v-.042c0-4.26 3.505-7.659 8.037-7.659 4.532 0 7.994 3.337 7.994 7.617v.042c0 4.26-3.504 7.659-8.036 7.659Zm.042-4.343c1.867 0 3.042-1.553 3.042-3.274v-.042c0-1.741-1.196-3.315-3.084-3.315-1.867 0-3.043 1.553-3.043 3.273v.042c0 1.742 1.197 3.316 3.085 3.316Zm22.674-10.765 6.127 14.793h-5.455l-3.022-8.057-3.043 8.057h-5.35l6.127-14.793h4.616Zm18.073 15.108c-4.533 0-7.995-3.336-7.995-7.617v-.042c0-4.26 3.504-7.659 8.037-7.659 4.532 0 7.994 3.337 7.994 7.617v.042c0 4.26-3.504 7.659-8.036 7.659Zm.042-4.343c1.867 0 3.042-1.553 3.042-3.274v-.042c0-1.741-1.196-3.315-3.084-3.315-1.868 0-3.043 1.553-3.043 3.273v.042c0 1.742 1.196 3.316 3.085 3.316Zm13.943 4.028V23.97h11.814v4.134h-6.904v10.554h-4.91Zm32.193 0h-4.91v-7.155l-5.56 7.155h-4.218V23.97h4.91v6.84l5.33-6.84h4.448v14.688Zm19.667-14.688v14.688h-4.91v-4.196h-1.175l-2.686 4.196h-5.602l3.357-5.057c-2.077-.944-2.791-2.706-2.791-4.385v-.042c0-3.294 2.707-5.204 6.652-5.204h7.155Zm-4.91 4.113h-2.14c-1.154 0-1.868.503-1.868 1.427v.042c0 .944.735 1.405 1.91 1.405h2.098v-2.874Z" fill="#2D2D33"/></svg>