<svg width="33" height="32" fill="none" xmlns="http://www.w3.org/2000/svg"><path d="M29.793 24.44c0 .48-.106.973-.333 1.453a5.51 5.51 0 0 1-.907 1.36c-.653.72-1.373 1.24-2.186 1.573-.8.334-1.667.507-2.6.507-1.36 0-2.814-.32-4.347-.973-1.533-.654-3.067-1.534-4.587-2.64a38.333 38.333 0 0 1-4.373-3.733 37.885 37.885 0 0 1-3.72-4.36c-1.093-1.52-1.973-3.04-2.613-4.547-.64-1.52-.96-2.973-.96-4.36a6.9 6.9 0 0 1 .48-2.574c.32-.813.826-1.56 1.533-2.226.853-.84 1.787-1.253 2.773-1.253.374 0 .747.08 1.08.24.347.16.654.4.894.746l3.093 4.36c.24.334.413.64.533.934.12.28.187.56.187.813 0 .32-.093.64-.28.947a4.537 4.537 0 0 1-.747.946L11.7 12.706a.713.713 0 0 0-.213.534c0 .107.013.2.04.306.04.107.08.187.106.267.24.44.654 1.013 1.24 1.707.6.693 1.24 1.4 1.934 2.107a40.12 40.12 0 0 0 2.12 1.96c.693.586 1.266.986 1.72 1.226.066.027.146.067.24.107.106.04.213.053.333.053.227 0 .4-.08.547-.226l1.013-1c.333-.334.653-.587.96-.747.307-.187.613-.28.947-.28.253 0 .52.053.813.173.293.12.6.293.933.52l4.414 3.134c.346.24.586.52.733.853.133.333.213.667.213 1.04Z" fill="#4F84E0"/></svg>