<svg width="33" height="29" fill="none" xmlns="http://www.w3.org/2000/svg"><path d="M15.472 1.945c.313-.893 1.575-.893 1.888 0l2.835 8.095a1 1 0 0 0 .944.669h9.004c.987 0 1.377 1.278.56 1.83l-7.154 4.82a1 1 0 0 0-.384 1.16l2.762 7.887c.318.908-.705 1.698-1.503 1.16l-7.45-5.021a1 1 0 0 0-1.117 0l-7.449 5.02c-.798.539-1.82-.25-1.503-1.159l2.763-7.887a1 1 0 0 0-.385-1.16L2.13 12.54c-.818-.552-.428-1.83.559-1.83h9.005a1 1 0 0 0 .943-.67l2.835-8.094Z" stroke="url(#a)" stroke-width="2" stroke-linecap="round" stroke-linejoin="round"/><defs><linearGradient id="a" x1="16.416" y1="-.75" x2="16.416" y2="29.25" gradientUnits="userSpaceOnUse"><stop stop-color="#5188ED"/><stop offset="1" stop-color="#306DE5"/></linearGradient></defs></svg>