<svg width="88" height="21" fill="none" xmlns="http://www.w3.org/2000/svg"><g clip-path="url(#a)" fill-rule="evenodd" clip-rule="evenodd"><path d="M7.723 4.74H6.49c-2.236 0-3.413 1.133-3.413 2.812 0 1.903.815 2.783 2.492 3.919l1.379.927-3.983 5.95H0l3.57-5.323C1.51 11.554.355 10.13.355 7.703c0-3.036 2.105-5.09 6.107-5.09h3.983v15.735H7.713V4.74h.01Zm13.983 2.22v11.385h-2.69v-4.75h-3.6v4.75h-2.69V6.96h2.69v4.507h3.6V6.96h2.69Zm12.157 13.982h-2.492v-2.607h-6.046v2.607h-2.492v-4.727h.844c.947-1.904 1.136-5.502 1.136-8.285v-.976h7.854v9.257h1.2v4.728l-.004.003Zm-3.89-11.854h-2.85v.335c0 1.968-.205 5.07-.957 6.795h3.804v-7.13h.003Zm9.934 9.474c-3.44 0-5.388-1.922-5.388-5.885 0-3.439 1.565-5.95 4.847-5.95 2.69 0 4.434 1.497 4.434 5.454v1.423h-6.494c.112 1.904.86 2.831 2.831 2.831 1.312 0 2.716-.496 3.551-1.068v2.2c-.787.544-2.054.992-3.778.992l-.003.003Zm-2.604-6.944h3.759v-.224c0-1.424-.41-2.53-1.744-2.53-1.283-.013-1.939.943-2.012 2.754h-.003Zm11.002 1.135v5.595h-2.7V6.96h2.7v5.246l3.81-5.246h2.719l-3.804 5.246 4.32 6.13h-3.063l-3.983-5.586v.003Zm6.887-.092c0 3.803 1.744 5.901 5.346 5.911 1.245 0 2.128-.224 2.784-.704v-2.194c-.675.48-1.491.768-2.624.768-1.923 0-2.72-1.497-2.72-3.852 0-2.472.977-3.74 2.736-3.74 1.04 0 2.064.366 2.608.705V7.268c-.564-.317-1.562-.544-2.896-.544-3.442 0-5.23 2.463-5.23 5.93l-.004.007Z" fill="#000"/><path d="M79.599 0C74.96 0 71.2 3.765 71.2 8.403c0 2.223.883 4.36 2.457 5.937 1.523 1.523 5.103 3.724 5.314 6.033.032.345.281.627.627.627.345 0 .598-.282.627-.627.211-2.313 3.791-4.51 5.31-6.03a8.406 8.406 0 0 0 2.46-5.94A8.4 8.4 0 0 0 79.6 0Z" fill="#F43"/><path opacity=".25" d="M79.599 11.35a2.95 2.95 0 0 0 0-5.9 2.948 2.948 0 0 0 0 5.896v.003Z" fill="#000"/></g><defs><clipPath id="a"><path fill="#fff" d="M0 0h88v21H0z"/></clipPath></defs></svg>