<svg width="1920" height="1081" viewBox="0 0 1920 1081" fill="none" xmlns="http://www.w3.org/2000/svg">
<circle cx="1005.99" cy="508.227" r="114.296" fill="#568EF2"/>
<ellipse cx="548.278" cy="390.76" rx="162.448" ry="117.471" fill="#307EF4" fill-opacity="0.71"/>
<circle cx="1577.47" cy="354.778" r="122.762" fill="#FF0000"/>
<circle cx="1709.76" cy="204.505" r="122.762" fill="#4F84E0"/>
<g filter="url(#filter0_b_132_13093)">
<rect x="-0.5" width="1920" height="951" fill="white" fill-opacity="0.79"/>
</g>
<path fill-rule="evenodd" clip-rule="evenodd" d="M1566.84 180.468C1645.13 240.486 1786.47 207.43 1831.84 295.027C1876.36 381.007 1805.2 481.484 1769.3 571.41C1736.34 653.973 1714.69 757.878 1633.04 793.039C1551.9 827.978 1465.86 760.65 1380.23 738.956C1320.91 723.928 1260.53 719.069 1209.25 685.676C1156.28 651.186 1124.66 597.713 1086.25 547.52C1025.41 468.028 885.707 401.098 919.294 306.802C953.489 210.798 1124.66 281.566 1203.83 217.401C1289.44 148.023 1260.74 -47.5996 1370.37 -58.7529C1475.6 -69.4595 1482.9 116.112 1566.84 180.468Z" stroke="white" stroke-opacity="0.35" stroke-width="5"/>
<path fill-rule="evenodd" clip-rule="evenodd" d="M1539.95 214.072C1605.18 264.087 1722.97 236.541 1760.77 309.538C1797.88 381.188 1738.58 464.919 1708.66 539.857C1681.2 608.66 1663.15 695.247 1595.11 724.548C1527.49 753.664 1455.8 697.558 1384.44 679.479C1335 666.956 1284.68 662.907 1241.95 635.079C1197.81 606.337 1171.46 561.776 1139.45 519.949C1088.75 453.706 972.332 397.931 1000.32 319.351C1028.82 239.348 1171.46 298.321 1237.44 244.85C1308.78 187.035 1284.86 24.0159 1376.21 14.7214C1463.91 5.79928 1469.99 160.442 1539.95 214.072Z" stroke="white" stroke-opacity="0.35" stroke-width="5"/>
<path fill-rule="evenodd" clip-rule="evenodd" d="M1513.05 248.414C1565.24 288.425 1659.47 266.389 1689.71 324.786C1719.39 382.106 1671.95 449.091 1648.02 509.042C1626.05 564.084 1611.61 633.354 1557.18 656.795C1503.09 680.087 1445.73 635.202 1388.64 620.739C1349.09 610.72 1308.84 607.481 1274.65 585.219C1239.34 562.226 1218.26 526.577 1192.65 493.115C1152.09 440.121 1058.96 395.501 1081.35 332.636C1104.14 268.634 1218.26 315.813 1271.04 273.036C1328.11 226.784 1308.98 96.3687 1382.06 88.9331C1452.22 81.7954 1457.08 205.51 1513.05 248.414Z" stroke="white" stroke-opacity="0.35" stroke-width="5"/>
<path fill-rule="evenodd" clip-rule="evenodd" d="M1486.15 282.018C1525.29 312.027 1595.96 295.499 1618.65 339.297C1640.91 382.287 1605.33 432.526 1587.38 477.489C1570.9 518.771 1560.07 570.723 1519.25 588.304C1478.68 605.773 1435.66 572.109 1392.84 561.262C1363.18 553.748 1332.99 551.319 1307.35 534.622C1280.87 517.377 1265.06 490.64 1245.85 465.544C1215.43 425.798 1145.58 392.333 1162.37 345.185C1179.47 297.183 1265.06 332.567 1304.64 300.484C1347.45 265.796 1333.1 167.984 1387.91 162.407C1440.53 157.054 1444.18 249.84 1486.15 282.018Z" stroke="white" stroke-opacity="0.35" stroke-width="5"/>
<path fill-rule="evenodd" clip-rule="evenodd" d="M1459.25 315.622C1485.35 335.628 1532.46 324.609 1547.58 353.808C1562.42 382.468 1538.7 415.96 1526.74 445.936C1515.75 473.457 1508.53 508.092 1481.32 519.812C1454.27 531.458 1425.59 509.016 1397.05 501.785C1377.27 496.775 1357.15 495.155 1340.05 484.024C1322.4 472.528 1311.86 454.703 1299.05 437.972C1278.77 411.475 1232.21 389.165 1243.4 357.733C1254.8 325.732 1311.86 349.321 1338.25 327.933C1366.78 304.807 1357.22 239.599 1393.76 235.881C1428.84 232.312 1431.27 294.17 1459.25 315.622Z" stroke="white" stroke-opacity="0.35" stroke-width="5"/>
<g opacity="0.65">
<circle cx="-40.1329" cy="55.8163" r="193.017" stroke="#F7F7F7" stroke-opacity="0.67" stroke-width="3"/>
<circle cx="-40.1328" cy="55.8165" r="257.994" stroke="#F7F7F7" stroke-opacity="0.67" stroke-width="3"/>
<circle cx="-40.1328" cy="55.8165" r="257.994" stroke="#F7F7F7" stroke-opacity="0.67" stroke-width="3"/>
<circle cx="-40.1329" cy="55.8163" r="322.867" stroke="#F7F7F7" stroke-opacity="0.67" stroke-width="3"/>
<circle cx="-39.9275" cy="55.6106" r="128.247" stroke="#F7F7F7" stroke-opacity="0.67" stroke-width="3"/>
</g>
<defs>
<filter id="filter0_b_132_13093" x="-250.5" y="-250" width="2420" height="1451" filterUnits="userSpaceOnUse" color-interpolation-filters="sRGB">
<feFlood flood-opacity="0" result="BackgroundImageFix"/>
<feGaussianBlur in="BackgroundImageFix" stdDeviation="125"/>
<feComposite in2="SourceAlpha" operator="in" result="effect1_backgroundBlur_132_13093"/>
<feBlend mode="normal" in="SourceGraphic" in2="effect1_backgroundBlur_132_13093" result="shape"/>
</filter>
</defs>
</svg>
