<svg width="1920" height="1081" fill="none" xmlns="http://www.w3.org/2000/svg"><circle cx="1005.99" cy="508.227" r="114.296" fill="#568EF2"/><ellipse cx="548.278" cy="390.76" rx="162.448" ry="117.471" fill="#307EF4" fill-opacity=".71"/><circle cx="1577.47" cy="354.778" r="122.762" fill="red"/><circle cx="1709.76" cy="204.505" r="122.762" fill="#4F84E0"/><g filter="url(#a)"><path fill="#fff" fill-opacity=".79" d="M-.5 0h1920v951H-.5z"/></g><path clip-rule="evenodd" d="M1566.84 180.468c78.29 60.018 219.63 26.962 265 114.559 44.52 85.98-26.64 186.457-62.54 276.383-32.96 82.563-54.61 186.468-136.26 221.629-81.14 34.939-167.18-32.389-252.81-54.083-59.32-15.028-119.7-19.887-170.98-53.28-52.97-34.49-84.59-87.963-123-138.156-60.84-79.492-200.543-146.422-166.956-240.718 34.195-96.004 205.366-25.236 284.536-89.401 85.61-69.378 56.91-265 166.54-276.154 105.23-10.707 112.53 174.865 196.47 239.221Z" stroke="#fff" stroke-opacity=".35" stroke-width="5"/><path clip-rule="evenodd" d="M1539.95 214.072c65.23 50.015 183.02 22.469 220.82 95.466 37.11 71.65-22.19 155.381-52.11 230.319-27.46 68.803-45.51 155.39-113.55 184.691-67.62 29.116-139.31-26.99-210.67-45.069-49.44-12.523-99.76-16.572-142.49-44.4-44.14-28.742-70.49-73.303-102.5-115.13-50.7-66.243-167.118-122.018-139.13-200.598 28.5-80.003 171.14-21.03 237.12-74.501 71.34-57.815 47.42-220.834 138.77-230.129 87.7-8.922 93.78 145.721 163.74 199.351Z" stroke="#fff" stroke-opacity=".35" stroke-width="5"/><path clip-rule="evenodd" d="M1513.05 248.414c52.19 40.011 146.42 17.975 176.66 76.372 29.68 57.32-17.76 124.305-41.69 184.256-21.97 55.042-36.41 124.312-90.84 147.753-54.09 23.292-111.45-21.593-168.54-36.056-39.55-10.019-79.8-13.258-113.99-35.52-35.31-22.993-56.39-58.642-82-92.104-40.56-52.994-133.69-97.614-111.3-160.479 22.79-64.002 136.91-16.823 189.69-59.6 57.07-46.252 37.94-176.667 111.02-184.103 70.16-7.138 75.02 116.577 130.99 159.481Z" stroke="#fff" stroke-opacity=".35" stroke-width="5"/><path clip-rule="evenodd" d="M1486.15 282.018c39.14 30.009 109.81 13.481 132.5 57.279 22.26 42.99-13.32 93.229-31.27 138.192-16.48 41.282-27.31 93.234-68.13 110.815-40.57 17.469-83.59-16.195-126.41-27.042-29.66-7.514-59.85-9.943-85.49-26.64-26.48-17.245-42.29-43.982-61.5-69.078-30.42-39.746-100.27-73.211-83.48-120.359 17.1-48.002 102.69-12.618 142.27-44.701 42.81-34.688 28.46-132.5 83.27-138.077 52.62-5.353 56.27 87.433 98.24 119.611Z" stroke="#fff" stroke-opacity=".35" stroke-width="5"/><path clip-rule="evenodd" d="M1459.25 315.622c26.1 20.006 73.21 8.987 88.33 38.186 14.84 28.66-8.88 62.152-20.84 92.128-10.99 27.521-18.21 62.156-45.42 73.876-27.05 11.646-55.73-10.796-84.27-18.027-19.78-5.01-39.9-6.63-57-17.761-17.65-11.496-28.19-29.321-41-46.052-20.28-26.497-66.84-48.807-55.65-80.239 11.4-32.001 68.46-8.412 94.85-29.8 28.53-23.126 18.97-88.334 55.51-92.052 35.08-3.569 37.51 58.289 65.49 79.741Z" stroke="#fff" stroke-opacity=".35" stroke-width="5"/><g opacity=".65" stroke="#F7F7F7" stroke-opacity=".67" stroke-width="3"><circle cx="-40.133" cy="55.816" r="193.017"/><circle cx="-40.133" cy="55.816" r="257.994"/><circle cx="-40.133" cy="55.816" r="257.994"/><circle cx="-40.133" cy="55.816" r="322.867"/><circle cx="-39.928" cy="55.611" r="128.247"/></g><defs><filter id="a" x="-250.5" y="-250" width="2420" height="1451" filterUnits="userSpaceOnUse" color-interpolation-filters="sRGB"><feFlood flood-opacity="0" result="BackgroundImageFix"/><feGaussianBlur in="BackgroundImageFix" stdDeviation="125"/><feComposite in2="SourceAlpha" operator="in" result="effect1_backgroundBlur_132_13093"/><feBlend in="SourceGraphic" in2="effect1_backgroundBlur_132_13093" result="shape"/></filter></defs></svg>