<svg width="60" height="60" fill="none" xmlns="http://www.w3.org/2000/svg"><path d="m20.067 11.36-.045-.039c-1.782-1.518-.793-4.067 1.273-4.298.26-.038.55-.017.812-.017h3.424c.432 0 .876-.02 1.305.034 2.256.28 2.888 2.886 1.046 4.425.785.576.087 1.375-.554 1.58-.446 3.115-.322 6.434.82 9.37.15.39 1.23 2.72 1.57 3.605-.187.341.302 2.35 0 2.122-.675-.513-3.56-8.202-3.691-9.115-.292-2.027-.54-5.62.644-7.374-1.262-.224-3.828-.13-5.16-.07.165.372.413.674.534 1.074 1.11 3.67-.072 9.915-2.02 12.96-.626.979-1.392 1.8-2.074 2.724-3.879 5.254-2.747 13.48-1.436 19.631.887 4.165.585 5.593 4.839 5.59l4.696-.001c4.534.004 4.37-.989 5.233-5.035.644-3.018 1.235-5.941 1.176-9.061-.027-1.435-.162-3.274-.258-4.753-.151-2.335-1.093-4.785-2.483-6.57-.665-1.466-1.519-1.68 0-2.122.752.347 2.272 2.93 2.671 3.994l.005-.049c.342-3.671.812-2.907 3.775-2.907l4.888.001c.488 0 2.758-.064 3.033.02.557.171.614 1.387.688 1.871a20 20 0 0 1-.526 8.377c-.653 2.33-2.361 5.707-4.393 6.882-.096.053-.198.09-.299.13l.003 6.796c.852.101 4.856.658 3.506 2.535-1.802 2.504-10.201 1.125-8.294-1.271.762-.957 2.404-1.139 3.493-1.205.05-2.205-.097-4.552.02-6.722-1.28-.652-5.022-4.636-5.613-7.287-.402-.9-.178-3.184.288-2.819.263.208.073.35.508 1.366 0 1.849 4.236 6.886 5.392 7.417.965-.26 1.846-1.527 2.41-2.372 2.46-3.685 2.784-8.007 2.138-12.334-.379-.027-.771-.001-1.151 0l-2.142.002c-2.056 0-4.114-.025-6.17.01-.726 3.028-.495 6.189-.326 9.273.043.796.16 1.583.153 2.383-.03 3.064-.602 5.634-1.201 8.58-.933 4.586-1.186 6.266-6.234 6.27h-5.045c-2.155-.002-3.977-.155-5.089-2.609-.448-.99-.543-2.203-.765-3.273-1.361-6.536-2.704-14.365.724-20.415.804-1.418 1.952-2.528 2.813-3.898 2.096-3.335 2.546-7.805 1.861-11.696-.947-.416-1.008-.653-.772-1.71Zm1.256-2.944c-1.165.17-1.198 1.666-.4 1.752 1.75.189 4.086-.04 5.93.022.581.015.78-.212.866-.834-.468-1.448-2.914-.947-4.136-.947h-1.486c-.254 0-.521-.017-.774.007Zm17.207 44.13c-.848.04-1.779.121-2.545.543 1.111.373 2.166.5 3.323.481.838-.04 1.72-.096 2.476-.529-.96-.548-2.193-.529-3.254-.494Z" fill="#4F84E0"/><path d="M29.718 26.02c-.34-.885-1.42-3.215-1.57-3.605-1.142-2.936-1.266-6.255-.82-9.37.641-.205 1.34-1.004.554-1.58 1.842-1.54 1.21-4.145-1.046-4.425-.43-.053-.873-.035-1.305-.034h-3.424c-.262 0-.553-.021-.812.017-2.066.231-3.055 2.78-1.273 4.298l.045.039c-.236 1.057-.175 1.294.772 1.71.685 3.89.235 8.361-1.86 11.696-.862 1.37-2.01 2.48-2.814 3.898-3.427 6.05-2.085 13.88-.724 20.415.222 1.07.317 2.284.765 3.273 1.112 2.454 2.934 2.607 5.09 2.609h5.044c5.048-.004 5.301-1.684 6.234-6.27.6-2.946 1.172-5.516 1.2-8.58.008-.8-.109-1.587-.152-2.383-.17-3.084-.4-6.245.326-9.274 2.056-.034 4.114-.01 6.17-.009l2.142-.002c.38-.001.772-.027 1.151 0 .646 4.327.321 8.65-2.138 12.334-.564.845-1.445 2.111-2.41 2.372-1.156-.53-5.392-5.568-5.392-7.417-.435-1.017-.245-1.158-.508-1.366-.466-.365-.69 1.92-.288 2.819.59 2.651 4.334 6.635 5.613 7.287-.117 2.17.03 4.517-.02 6.722-1.09.066-2.73.248-3.493 1.205-1.907 2.396 6.492 3.775 8.294 1.27 1.35-1.876-2.654-2.433-3.506-2.534l-.003-6.795c.1-.04.203-.078.299-.13 2.032-1.176 3.74-4.553 4.393-6.883a20 20 0 0 0 .526-8.377c-.074-.484-.13-1.7-.688-1.87-.275-.085-2.545-.02-3.033-.02l-4.888-.002c-2.963 0-3.433-.764-3.775 2.907l-.005.05c-.399-1.065-1.92-3.648-2.67-3.995Zm0 0c-.187.341.302 2.35 0 2.122m0-2.122c-1.519.442-.665.656 0 2.122m0 0c-.675-.513-3.56-8.202-3.691-9.115-.292-2.027-.54-5.62.644-7.374-1.262-.224-3.828-.13-5.16-.07.165.372.413.674.534 1.074 1.11 3.67-.072 9.915-2.02 12.96-.626.979-1.392 1.8-2.074 2.724-3.879 5.254-2.747 13.48-1.436 19.631.887 4.165.585 5.593 4.839 5.59l4.696-.001c4.534.004 4.37-.989 5.233-5.035.644-3.018 1.235-5.941 1.176-9.061-.027-1.435-.162-3.274-.258-4.753-.151-2.335-1.093-4.785-2.483-6.57ZM21.323 8.416c-1.165.17-1.198 1.666-.4 1.752 1.75.189 4.086-.04 5.93.022.581.015.78-.212.866-.834-.468-1.448-2.914-.947-4.136-.947h-1.486c-.254 0-.521-.017-.774.007Zm17.207 44.13c-.848.04-1.779.121-2.545.543 1.111.373 2.166.5 3.323.481.838-.04 1.72-.096 2.476-.529-.96-.548-2.193-.529-3.254-.494Z" stroke="#4F84E0" stroke-width=".55"/></svg>