<svg width="60" height="60" fill="none" xmlns="http://www.w3.org/2000/svg"><path d="M31.782 14.97c1.12-.175 2.332-1.066 2.441-2.255 1.63.745 2.256 3.808 1.862 5.42-.79 3.23-1.836 4.902-2.334 5.698l-.018.03c-1.806 2.888-3.919 4.403-7.256 5.726-1.713.679-4.391.155-6.073-.58-3.047-1.33-5.762-3.72-6.913-6.683-.528-1.361-1.056-2.831-1.69-5.527-.39-1.655-.104-3.425 1.69-3.994.142 1.227 1.81 2.325 2.984 2.183 3.394-.412 2.45-6.055-.27-5.681-1.094.15-1.86.807-2.204 1.824-3.027.777-4.408 2.86-3.602 5.96 0 0 1.169 3.771 1.67 4.973 1.51 4.25 4.405 5.731 7.522 8.218 2.1 1.676 2.966 3.322 2.966 3.322-.046 4.42.7 11.83 3.92 15.124 3.02 3.087 7.64 4.03 11.704 2.784 5.751-1.954 8.112-7.415 8.586-13.074.07-.85.063-1.7.128-2.547 5.822-.823 7.397-7.946 2.997-11.215a6.277 6.277 0 0 0-8.825 1.351c-2.821 3.86-.127 9.728 4.397 9.87-.066 4.235-.808 8.967-3.988 12.037-3.92 3.784-10.405 3.531-14.137-.381-2.647-2.775-3.342-10.227-3.092-13.949 0 0 .595-2.176 3.49-3.322 5.282-2.09 7.571-6.924 8.07-7.956.5-1.032 1.138-2.003 1.505-4.995.363-2.962-2.213-5.834-3.579-6.322-.274-1.025-1.537-1.793-2.574-1.741-1.52.199-2.372 2.092-2.167 3.478.187 1.254 1.48 2.428 2.79 2.224Z" fill="#4F84E0" stroke="#4F84E0" stroke-width=".55"/><path d="M46.554 34.313c-5.7.64-7.08-8.303-.878-9.152 5.653-.644 7.243 8.29.878 9.152Z" fill="#fff"/></svg>