<svg width="60" height="60" fill="none" xmlns="http://www.w3.org/2000/svg"><path d="M13.112 39.671c-2.585-1.648.994-5.44 1.595-7.302.275-.855.169-1.922.168-2.807l-.001-15.754c0-.755-.029-1.55.106-2.295.63-3.481 5.027-3.92 7.897-3.998.943-.043 1.893-.02 2.836-.02h8.3c3.04 0 8.35-.096 9.473 3.44.252.79.196 1.611.196 2.43l-.003 15.702c-.004 1.225-.039 2.137.337 3.34 0 0 1.25 2.942.53 1.285.499.853 3.795 5.447 1.172 5.842-.26 1.935-.484 3.835-.568 5.787-.083 1.922.093 3.899 0 5.775-.04.8-.692.703-1.329.685-.95-.026-1.902-.013-2.853-.014l-25.623.001c-1.823.017-1.504-.238-1.5-1.825.007-2.74-.017-5.443-.383-8.168-.095-.705-.247-1.4-.35-2.104ZM23.481 8.805c-1.815.037-5.226.212-6.526 1.56-.953.988-.787 2.54-.786 3.802V26.3c0 1.697.248 5.199-.341 6.739-.387 1.01-3 4.565-2.148 5.362.542.508 19.85.37 21.667.387l4.073-.002c1.465 0 3.637.064 5.075-.158 2.194-.34-.692-3.628-1.249-4.715-.806-1.574-.873-2.963-.871-4.675l.002-15.761c0-.799.123-1.651-.234-2.397-1.137-2.378-5.58-2.29-7.877-2.29h-7.884c-.966 0-1.936-.016-2.901.016ZM14.433 39.87c.722 3.384.781 7.16.701 10.61l28.732.004-.01-.696c-.039-3.24-.106-6.65.591-9.828l-22.224.094c-.726.001-1.439-.068-2.162-.083-1.767-.034-3.929-.164-5.627-.1Z" fill="#4F84E0"/><path d="M44.016 32.407c-.376-1.203-.34-2.115-.337-3.34l.002-15.702c.001-.819.057-1.64-.195-2.43-1.122-3.536-6.433-3.44-9.473-3.44h-8.3c-.943 0-1.893-.023-2.836.02-2.87.078-7.266.517-7.897 3.998-.135.746-.106 1.54-.106 2.295l.001 15.754c0 .885.107 1.952-.168 2.807-.6 1.863-4.18 5.654-1.595 7.302.103.704.255 1.399.35 2.104.366 2.725.39 5.427.383 8.168-.004 1.587-.323 1.842 1.5 1.825h25.623c.95 0 1.903-.013 2.853.013.637.018 1.288.116 1.328-.685.094-1.876-.082-3.853.001-5.775.084-1.952.307-3.852.569-5.787 2.622-.395-.674-4.99-1.173-5.842m-.53-1.285s1.25 2.942.53 1.285m-.53-1.285.53 1.285M23.481 8.805c-1.815.037-5.226.212-6.526 1.56-.953.988-.787 2.54-.786 3.802V26.3c0 1.697.248 5.199-.341 6.739-.387 1.01-3 4.565-2.148 5.362.542.508 19.85.37 21.667.387l4.073-.002c1.465 0 3.637.064 5.075-.158 2.194-.34-.692-3.628-1.249-4.715-.806-1.574-.873-2.963-.871-4.675l.002-15.761c0-.799.123-1.651-.234-2.397-1.137-2.378-5.58-2.29-7.877-2.29h-7.884c-.966 0-1.936-.016-2.901.016ZM14.433 39.87c.722 3.384.781 7.16.701 10.61l28.732.004-.01-.696c-.039-3.24-.106-6.65.591-9.828l-22.224.094c-.726.001-1.439-.068-2.162-.083-1.767-.034-3.929-.164-5.627-.1Z" stroke="#4F84E0" stroke-width=".55"/><path d="M20.992 31.317c-.846.384-1.814.358-2.543-.285-.914-.806-.928-2.355-1.002-3.488-.215-3.323-.2-6.899-.141-10.25.02-1.129-.102-2.535.706-3.442 1.597-1.793 7.456-2.316 9.894-2.443 2.914-.264 10.55.294 12.453 2.297 1.126 1.184.872 3.819.873 5.33 0 1.995-.034 3.975-.083 5.969-.032 1.279.1 4.012-.905 4.954-1.997 1.872-11.09 1.415-13.956 1.337-.253.539-.522 1.114-.66 1.695l.135.227c2.707 4.016-4.862 4.729-5.581 1.055-.222-1.134.593-1.907.81-2.956Zm7.082-18.62c-2.215.113-7.865.653-9.075 1.996-.528.586-.395 2.11-.403 2.84-.037 3.372-.046 6.94.154 10.287.063 1.062.094 2.905 1.664 2.256-.174-.36-.4-.69-.574-1.048-.977-2.015.215-4.544 2.169-5.453 2.23-1.037 4.779-.002 5.74 2.245.565 1.479.28 2.994-.69 4.206.537.075 1.065.02 1.605.034 1.922.05 8.988.171 10.509-.967.807-.605.678-3.956.7-4.927.037-1.598.361-8.572-.326-9.405-1.52-1.843-8.814-2.178-11.473-2.063ZM23.76 24.476c-1.59.11-3.087 1.451-2.948 3.128.143 1.724 2.057 2.23 1.14 4.932-.257.759-.858 1.632-.075 2.291.5.421 1.217.506 1.846.514.518-.026 1.002-.136 1.338-.562-2.08-3.798 1.698-4.714 1.681-7.51-.009-1.54-1.46-2.84-2.982-2.793Z" fill="#4F84E0" stroke="#4F84E0" stroke-width=".55"/><path d="M35.808 36.791c-.948.036-1.933-.108-2.691-.729-.657-.536-.856-1.458-.277-2.124.558-.641 1.456-.79 2.258-.85 1.643-.13 4.428 1.061 2.935 2.815-.53.62-1.455.812-2.225.888Zm-.805-2.385c-.477.054-.864.111-1.235.446.476.648 1.399.742 2.144.66.47-.062.868-.206 1.205-.551-.52-.518-1.404-.645-2.114-.555Z" fill="#4F84E0" stroke="#4F84E0" stroke-width=".55"/></svg>