<svg width="60" height="60" fill="none" xmlns="http://www.w3.org/2000/svg"><path d="M18.691 26.375c-1.654-3.527-3.688-11.323 1.556-12.796 1.09-.306.758-.14 1.592-.96 1.976-1.94 5.509-2.53 8.154-2.645 2.374-.157 6.03.343 7.964 1.816.827.63 1.307 1.521.594 2.423 3.958 2.218 5.24 5.99 3.93 10.299-.191.631-.462 1.234-.713 1.843 1.989 1.562.663 4.97-.964 6.272-.572.459-1.1.542-1.814.467-.458 1.486-1.247 2.814-2.23 4.011-.281.342-.64.614-.895.98-.238 2.287 1.487 3.487 3.379 4.057 4.095 1.234 8.535 3.077 10.755 6.955.537.938-.27 1.494-.804 1.126-.3-.206-.99-1.32-1.282-1.691-2.385-3.017-6.307-4.207-9.835-5.31-1.654 2.663-4.926 5.475-8.247 5.42-3.137-.058-6.129-2.881-7.802-5.406-3.822 1.162-8.132 2.635-10.477 6.101-.26.383-.525 1.018-1.074 1.005-1.47-.035.042-1.915.33-2.296 2.177-2.869 5.602-4.411 8.922-5.544 2.414-.824 4.324-1.242 4.445-4.353-.337-.47-.775-.878-1.141-1.328-.892-1.097-1.528-2.346-2.045-3.656-3.44.065-5.156-5.811-2.298-6.79Zm11.187-15.024c-2.21.115-5.754.738-7.295 2.46-1.234 1.38-.705.67-2.293 1.249-3.432 1.251-1.78 7.996-.501 10.372-.028-1.893.313-3.728 1.674-5.139 1.818-1.885 4.756-2.118 6.669-.234.381.376.721.844 1.157 1.155.118-.042.05-.186.234-.102.828.376 1.607 1.68.098 2.03-.645.15-2.464.736-2.689-.276-.108-.485.424-.826.76-1.054-1.336-2.78-5.177-1.928-6.2 1.038-.56 1.625-.23 3.522-.051 5.187.422 3.925 1.008 6.984 4.338 9.64 3.892 3.025 7.282 2.02 10.223-1.791 1.991-2.58 2.245-5.147 2.442-8.29.085-1.353.52-3.097-.74-4.053-1.744-1.32-4.9.036-5.065-1.151-.104-.752.793-.849 1.33-.886 2.599-.183 5.803.38 5.992 3.54.031.521-.018 1.042-.037 1.563 1.21-1.348 1.734-3.8 1.634-5.572-.184-3.284-2.498-5.569-5.56-6.428-.426-.12-2.287-.309-1.436-1.269.483-.546 2.013-.204 2.664-.192-1.26-1.65-5.325-1.867-7.348-1.797Zm-.344 9.963-.103.049c-.004.07.002.06.039.113l.1-.084c-.001-.06.009-.032-.036-.078Zm11.507 6.424c-.449.23-.868.52-1.305.775-.013.266-.3 3.104-.276 3.151a.96.96 0 0 0 .334-.022c1.114-.52 2.299-3.743 1.247-3.904Zm-22.124.019c-.816 1.15.206 3.474 1.354 3.995.085.007.178.027.258-.01.06-.428-.307-2.603-.35-3.339-.525-.184-.813-.46-1.262-.646Zm6.512 11.35c-.233 1.398-1.041 2.599-2.136 3.484 1.04 1.899 3.49 3.914 5.57 4.52 2.049.597 4.01-.558 5.54-1.822.912-.755 1.834-1.604 2.374-2.675-1.069-.815-1.995-2.13-2.25-3.465-2.313 1.942-5.511 2.282-8.067.645-.347-.222-.678-.476-1.03-.687Z" fill="#4F84E0" stroke="#4F84E0" stroke-width=".55"/></svg>