<svg xmlns="http://www.w3.org/2000/svg" width="30" height="30" viewBox="0 0 256 256" xml:space="preserve"><g style="stroke:none;stroke-width:0;stroke-dasharray:none;stroke-linecap:butt;stroke-linejoin:miter;stroke-miterlimit:10;fill:none;fill-rule:nonzero;opacity:1"><path d="M3.188 90a3 3 0 0 1-2.894-3.793l5.583-20.384a44.68 44.68 0 0 1-5.34-21.146v-.057C.546 20.017 20.571 0 45.175 0 57.109.005 68.322 4.653 76.75 13.086c8.428 8.436 13.066 19.647 13.063 31.57-.011 24.605-20.034 44.623-44.637 44.623a44.768 44.768 0 0 1-20.283-4.869L3.948 89.902a2.99 2.99 0 0 1-.76.098zM25.26 78.213a3 3 0 0 1 1.436.366 38.7 38.7 0 0 0 18.462 4.7c21.313 0 38.646-17.327 38.654-38.625.004-10.32-4.012-20.025-11.307-27.327-7.294-7.3-17-11.323-27.331-11.327C23.896 6 6.573 23.298 6.537 44.571v.053a38.652 38.652 0 0 0 5.156 19.309c.401.694.507 1.52.295 2.293L7.454 82.78 24.5 78.31c.25-.065.505-.097.76-.097z" style="stroke:none;stroke-width:1;stroke-dasharray:none;stroke-linecap:butt;stroke-linejoin:miter;stroke-miterlimit:10;fill:#4f84e0;fill-rule:nonzero;opacity:1" transform="matrix(2.81 0 0 2.81 1.407 1.407)"/><path d="M34.769 27.22c-.779-1.733-1.6-1.767-2.341-1.798-.607-.026-1.301-.024-1.994-.024-.694 0-1.821.26-2.774 1.301-.954 1.041-3.642 3.558-3.642 8.676 0 5.119 3.729 10.065 4.248 10.76.52.694 7.198 11.534 17.771 15.703 8.789 3.466 10.577 2.776 12.485 2.603 1.907-.173 6.155-2.516 7.022-4.945.867-2.429.867-4.511.607-4.946-.26-.434-.954-.694-1.994-1.214-1.041-.52-6.155-3.037-7.109-3.385-.954-.347-1.648-.52-2.341.522-.694 1.04-2.686 3.383-3.293 4.077-.607.695-1.214.782-2.254.262-1.041-.522-4.392-1.62-8.367-5.163-3.093-2.758-5.181-6.163-5.788-7.205-.607-1.04-.065-1.604.457-2.123.467-.466 1.041-1.215 1.561-1.822.519-.608.692-1.041 1.039-1.735.347-.694.174-1.302-.086-1.822-.261-.52-2.283-5.665-3.207-7.722" style="stroke:none;stroke-width:1;stroke-dasharray:none;stroke-linecap:butt;stroke-linejoin:miter;stroke-miterlimit:10;fill:#4f84e0;fill-rule:nonzero;opacity:1" transform="matrix(2.81 0 0 2.81 1.407 1.407)"/></g></svg>