<svg width="60" height="60" viewBox="0 0 60 60" fill="none" xmlns="http://www.w3.org/2000/svg">
<path d="M20.0671 11.3595L20.0218 11.3212C18.2396 9.80303 19.2289 7.25401 21.2954 7.02337C21.5543 6.9848 21.8446 7.00551 22.1068 7.00589L25.5314 7.00579C25.9627 7.00523 26.4067 6.98678 26.8356 7.03999C29.0915 7.3199 29.7236 9.92586 27.8818 11.4646C28.6675 12.0412 27.969 12.8404 27.3284 13.045C26.8822 16.16 27.0061 19.4786 28.1471 22.4146C28.2988 22.8049 29.3788 25.1352 29.7183 26.0204C29.5313 26.3614 30.0201 28.3707 29.7183 28.1415C29.043 27.6287 26.1582 19.9401 26.0268 19.027C25.7349 16.9996 25.4869 13.4069 26.6708 11.653C25.4086 11.4289 22.8425 11.5222 21.5113 11.5835C21.6761 11.9554 21.9242 12.2572 22.0451 12.6569C23.155 16.3272 21.9731 22.5724 20.0247 25.6173C19.3986 26.5958 18.633 27.4173 17.9506 28.3415C14.0722 33.5952 15.204 41.8214 16.5145 47.9723C17.4018 52.1369 17.1001 53.5646 21.3538 53.5612L26.05 53.5608C30.5843 53.5648 30.4193 52.5722 31.2829 48.5262C31.927 45.5082 32.5182 42.5846 32.4595 39.4649C32.4325 38.0296 32.2968 36.191 32.201 34.7119C32.0496 32.3768 31.1077 29.9269 29.7183 28.1415C29.0534 26.6763 28.1992 26.462 29.7183 26.0204C30.4696 26.3673 31.9902 28.9496 32.3893 30.0141L32.3936 29.9652C32.7362 26.2937 33.206 27.0582 36.1693 27.0581L41.0574 27.0592C41.5447 27.0594 43.8152 26.9951 44.0898 27.0794C44.6474 27.2504 44.7038 28.4663 44.7779 28.9504C45.2047 31.7405 45.0094 34.624 44.2521 37.3269C43.5992 39.6571 41.8905 43.0343 39.8586 44.2094C39.7633 44.2623 39.6607 44.2994 39.5604 44.3397L39.5635 51.1353C40.4153 51.236 44.4195 51.7929 43.0691 53.6696C41.2668 56.1743 32.8678 54.7949 34.7753 52.3989C35.5373 51.4416 37.1785 51.2602 38.2682 51.1941C38.3189 48.9892 38.1708 46.6416 38.2883 44.4718C37.0088 43.8198 33.2659 39.8363 32.6752 37.1848C32.2733 36.2859 32.4973 34.0005 32.9628 34.3663C33.2264 34.5736 33.0363 34.7154 33.4712 35.7321C33.4712 37.5807 37.7073 42.6182 38.8629 43.1489C39.8276 42.8883 40.709 41.6222 41.2729 40.7773C43.7322 37.0922 44.057 32.7697 43.411 28.4431C43.0323 28.4161 42.64 28.4416 42.2596 28.4434L40.1182 28.445C38.0624 28.4448 36.0038 28.4199 33.9483 28.4544C33.2218 31.483 33.4527 34.6436 33.6217 37.7281C33.6653 38.5243 33.7822 39.3112 33.7747 40.1108C33.7458 43.1753 33.1731 45.7446 32.5738 48.6911C31.6411 53.2771 31.3883 54.9569 26.3404 54.9609L21.2953 54.9608C19.1395 54.9593 17.318 54.8055 16.2064 52.3521C15.7583 51.3629 15.6633 50.1489 15.4406 49.0794C14.08 42.5433 12.7375 34.7141 16.1654 28.664C16.9689 27.2459 18.1168 26.1364 18.9783 24.7659C21.0744 21.431 21.5241 16.9609 20.8391 13.0701C19.892 12.6542 19.8309 12.417 20.0671 11.3595ZM21.3233 8.41645C20.1585 8.58641 20.125 10.0819 20.9222 10.1679C22.673 10.3568 25.0086 10.1272 26.8524 10.1897C27.4344 10.2054 27.6327 9.97834 27.7187 9.3561C27.2506 7.9081 24.8049 8.40866 23.583 8.40856L22.0972 8.40895C21.8434 8.40912 21.5758 8.39202 21.3233 8.41645ZM38.53 52.5467C37.6817 52.5857 36.7512 52.6674 35.9852 53.0894C37.0965 53.4615 38.1513 53.5892 39.3082 53.5703C40.1458 53.5296 41.0285 53.4744 41.7839 53.0415C40.8246 52.4929 39.5913 52.5121 38.53 52.5467Z" fill="#4F84E0"/>
<path d="M29.7183 26.0204C29.3788 25.1352 28.2988 22.8049 28.1471 22.4146C27.0061 19.4786 26.8822 16.16 27.3284 13.045C27.969 12.8404 28.6675 12.0412 27.8818 11.4646C29.7236 9.92586 29.0915 7.3199 26.8356 7.03999C26.4067 6.98678 25.9627 7.00523 25.5314 7.00579L22.1068 7.00589C21.8446 7.00551 21.5543 6.9848 21.2954 7.02337C19.2289 7.25401 18.2396 9.80303 20.0218 11.3212L20.0671 11.3595C19.8309 12.417 19.892 12.6542 20.8391 13.0701C21.5241 16.9609 21.0744 21.431 18.9783 24.7659C18.1168 26.1364 16.9689 27.2459 16.1654 28.664C12.7375 34.7141 14.08 42.5433 15.4406 49.0794C15.6633 50.1489 15.7583 51.3629 16.2064 52.3521C17.318 54.8055 19.1395 54.9593 21.2953 54.9608L26.3404 54.9609C31.3883 54.9569 31.6411 53.2771 32.5738 48.6911C33.1731 45.7446 33.7458 43.1753 33.7747 40.1108C33.7822 39.3112 33.6653 38.5243 33.6217 37.7281C33.4527 34.6436 33.2218 31.483 33.9483 28.4544C36.0038 28.4199 38.0624 28.4448 40.1182 28.445L42.2596 28.4434C42.64 28.4416 43.0323 28.4161 43.411 28.4431C44.057 32.7697 43.7322 37.0922 41.2729 40.7773C40.709 41.6222 39.8276 42.8883 38.8629 43.1489C37.7073 42.6182 33.4712 37.5807 33.4712 35.7321C33.0363 34.7154 33.2264 34.5736 32.9628 34.3663C32.4973 34.0005 32.2733 36.2859 32.6752 37.1848C33.2659 39.8363 37.0088 43.8198 38.2883 44.4718C38.1708 46.6416 38.3189 48.9892 38.2682 51.1941C37.1785 51.2602 35.5373 51.4416 34.7753 52.3989C32.8678 54.7949 41.2668 56.1743 43.0691 53.6696C44.4195 51.7929 40.4153 51.236 39.5635 51.1353L39.5604 44.3397C39.6607 44.2994 39.7633 44.2623 39.8586 44.2094C41.8905 43.0343 43.5992 39.6571 44.2521 37.3269C45.0094 34.624 45.2047 31.7405 44.7779 28.9504C44.7038 28.4663 44.6474 27.2504 44.0898 27.0794C43.8152 26.9951 41.5447 27.0594 41.0574 27.0592L36.1693 27.0581C33.206 27.0582 32.7362 26.2937 32.3936 29.9652L32.3893 30.0141C31.9902 28.9496 30.4696 26.3673 29.7183 26.0204ZM29.7183 26.0204C29.5313 26.3614 30.0201 28.3707 29.7183 28.1415M29.7183 26.0204C28.1992 26.462 29.0534 26.6763 29.7183 28.1415M29.7183 28.1415C29.043 27.6287 26.1582 19.9401 26.0268 19.027C25.7349 16.9996 25.4869 13.4069 26.6708 11.653C25.4086 11.4289 22.8425 11.5222 21.5113 11.5835C21.6761 11.9554 21.9242 12.2572 22.0451 12.6569C23.155 16.3272 21.9731 22.5724 20.0247 25.6173C19.3986 26.5958 18.633 27.4173 17.9506 28.3415C14.0722 33.5952 15.204 41.8214 16.5145 47.9723C17.4018 52.1369 17.1001 53.5646 21.3538 53.5612L26.05 53.5608C30.5843 53.5648 30.4193 52.5722 31.2829 48.5262C31.927 45.5082 32.5182 42.5846 32.4595 39.4649C32.4325 38.0296 32.2968 36.191 32.201 34.7119C32.0496 32.3768 31.1077 29.9269 29.7183 28.1415ZM21.3233 8.41645C20.1585 8.58641 20.125 10.0819 20.9222 10.1679C22.673 10.3568 25.0086 10.1272 26.8524 10.1897C27.4344 10.2054 27.6327 9.97834 27.7187 9.3561C27.2506 7.9081 24.8049 8.40866 23.583 8.40856L22.0972 8.40895C21.8434 8.40912 21.5758 8.39202 21.3233 8.41645ZM38.53 52.5467C37.6817 52.5857 36.7512 52.6674 35.9852 53.0894C37.0965 53.4615 38.1513 53.5892 39.3082 53.5703C40.1458 53.5296 41.0285 53.4744 41.7839 53.0415C40.8246 52.4929 39.5913 52.5121 38.53 52.5467Z" stroke="#4F84E0" stroke-width="0.55"/>
</svg>
