<svg width="60" height="60" viewBox="0 0 60 60" fill="none" xmlns="http://www.w3.org/2000/svg">
<path d="M31.7816 14.9698C32.9026 14.7948 34.114 13.9045 34.2231 12.7152C35.8529 13.4605 36.4793 16.5235 36.0852 18.1356C35.2958 21.3641 34.2492 23.0373 33.7514 23.833L33.7331 23.8623C31.9267 26.751 29.814 28.266 26.4769 29.589C24.7643 30.268 22.086 29.7442 20.4035 29.0094C17.3567 27.6786 14.6417 25.2895 13.4914 22.3258C12.9632 20.9648 12.4346 19.4949 11.8004 16.7991C11.4111 15.1444 11.697 13.3736 13.4914 12.8048C13.6327 14.0317 15.3011 15.1303 16.4749 14.988C19.8694 14.5765 18.925 8.93292 16.2059 9.30668C15.1114 9.45714 14.3446 10.1138 14.0014 11.1312C10.9738 11.9079 9.59314 13.991 10.3992 17.0909C10.3992 17.0909 11.568 20.8621 12.0697 22.064C13.579 26.3131 16.4745 27.7954 19.5911 30.2824C21.6905 31.9578 22.5568 33.6044 22.5568 33.6044C22.5111 38.0233 23.2564 45.4344 26.4769 48.7277C29.4964 51.8151 34.1173 52.7587 38.1814 51.5119C43.9324 49.5576 46.2928 44.0973 46.7665 38.4383C46.8376 37.5887 46.8305 36.7387 46.8946 35.8913C52.7171 35.0677 54.2923 27.9448 49.8919 24.676C47.0772 22.5851 43.1307 23.2034 41.0669 26.0272C38.2456 29.8873 40.9403 35.755 45.4643 35.8967C45.3984 40.132 44.6563 44.8638 41.4757 47.9337C37.5552 51.718 31.0714 51.4651 27.3389 47.5529C24.6915 44.7782 23.9971 37.3257 24.2467 33.6044C24.2467 33.6044 24.8421 31.428 27.7361 30.2824C33.0194 28.1911 35.308 23.3581 35.8078 22.3258C36.3076 21.2935 36.9452 20.3229 37.312 17.3311C37.6753 14.3688 35.0991 11.4966 33.7331 11.0095C33.4586 9.98364 32.1963 9.21622 31.1587 9.26757C29.6392 9.46661 28.7867 11.3605 28.9924 12.7456C29.1786 13.9998 30.4722 15.1741 31.7816 14.9698Z" fill="#4F84E0" stroke="#4F84E0" stroke-width="0.55"/>
<path d="M46.5545 34.3135C40.8544 34.9532 39.4736 26.0097 45.6759 25.1611C51.329 24.5174 52.9188 33.4517 46.5545 34.3135Z" fill="white"/>
</svg>
