<svg width="60" height="60" viewBox="0 0 60 60" fill="none" xmlns="http://www.w3.org/2000/svg">
<path d="M24.3469 13.7914C22.568 12.9444 22.157 10.3589 23.5409 8.9806C24.4367 8.08853 25.4529 8.03871 26.6531 8.02595L32.0063 8.0213C32.7439 8.02105 34.2011 7.94214 34.8464 8.08967C37.7259 8.74804 38.14 12.329 35.5161 13.8653C35.5559 16.284 35.5598 18.7204 35.5201 21.1392C35.5063 21.9765 35.3691 22.8113 35.3105 23.6466C35.0025 28.0415 37.6183 31.3013 39.8986 34.8064C41.7458 37.6458 43.6513 40.4551 45.5677 43.2497C47.0628 45.4299 50.683 49.5525 48.0899 52.0864C45.8759 54.2497 41.4514 53.9909 38.5531 53.9898L33.323 53.9902L19.8361 53.9907C17.312 53.9908 13.8125 53.9711 11.9464 52.1399C9.29489 49.5383 12.8927 45.4878 14.4725 43.1686L19.8423 35.1293C21.6992 32.3283 24.1154 29.3079 24.5613 25.8824C24.757 24.3793 24.4004 22.9285 24.3537 21.4322C24.3261 20.5502 24.3466 19.6624 24.3465 18.7799L24.3469 13.7914ZM25.7639 9.36497C24.04 9.51968 23.4901 11.5027 24.7013 12.4512C25.2217 12.8586 25.8858 12.7665 26.5069 12.7649L28.4839 12.7609C30.4333 12.761 32.394 12.8053 34.3426 12.7512C36.0168 12.648 36.3761 10.6141 35.2793 9.72944C34.657 9.2276 33.8488 9.35376 33.0978 9.35339L27.4421 9.35387C26.8898 9.35419 26.3141 9.32336 25.7639 9.36497ZM25.6755 14.0944L25.6704 18.4896C25.6706 19.3214 25.6468 20.1617 25.6827 20.9925C25.751 22.5651 26.1276 24.1142 25.9694 25.6938C25.5594 29.7861 22.5823 33.5091 20.3563 36.8176C18.1724 40.0635 15.9309 43.3628 13.7981 46.631C12.9367 47.9508 11.5497 49.8214 12.9422 51.2266C14.2825 52.5792 17.6271 52.6708 19.4802 52.6783L38.6411 52.6798C40.0904 52.6797 41.5349 52.6851 42.9818 52.5819C45.1989 52.4261 48.6337 51.5114 47.3552 48.6432C46.5803 46.9048 44.8137 44.6164 43.7194 43.0112L37.4576 33.6091C36.544 32.2309 35.6271 30.891 35.0274 29.3407L34.4799 27.9989C34.2515 27.1881 34.0746 26.3067 34.0335 25.4653C33.9494 24.2318 33.9494 24.0169 33.9494 24.0169C33.992 23.2434 34.0736 22.4891 34.1703 21.7207L34.1639 20.3359C34.1663 19.5047 34.1758 18.673 34.1564 17.842L34.1969 16.41C34.2326 15.6419 34.1474 14.8798 34.1955 14.1067L28.4334 14.1095C27.5167 14.1094 26.5907 14.0764 25.6755 14.0944Z" fill="#4F84E0" stroke="#4F84E0" stroke-width="0.55"/>
<path d="M37.9708 51C36.3584 50.9659 34.7418 50.9899 33.1288 50.99L21.1889 50.9909C19.1757 50.9924 15.3545 51.1538 15.0206 48.6132C14.8308 47.1689 15.9955 45.8758 16.8092 44.7651L19.0952 41.6982C20.0701 40.4162 21.19 38.2069 22.9865 38.0126C24.1344 37.9119 25.0566 38.44 26.1349 38.656C27.8081 38.9913 32.1156 38.9597 33.6567 38.6899C35.3772 38.3886 36.9885 37.3203 38.5614 38.697C39.5455 39.5584 42.199 43.3999 43.1807 44.7158C44.2073 46.092 45.957 48.2761 44.348 49.849C42.9759 51.1906 39.8159 50.9714 37.9708 51ZM36.5672 39.2676C35.6862 39.3816 34.8556 39.7486 33.973 39.8981C32.1704 40.2035 27.2064 40.2447 25.4826 39.7974C23.9727 39.4055 23.0438 38.713 21.9079 40.1171C21.068 41.1553 20.325 42.2744 19.5226 43.3396L17.89 45.5005C17.2588 46.3405 15.4876 48.3181 16.9018 49.2029C18.0692 49.9333 21.2302 49.7336 22.6727 49.7422L38.0688 49.7408C39.2383 49.7414 42.4297 49.8862 43.3029 49.0335C44.3189 48.0414 42.7644 46.3939 42.1455 45.5575C41.3472 44.4785 40.5218 43.4175 39.7073 42.3493L38.5671 40.8371C38.1014 40.2166 37.5392 39.1683 36.5672 39.2676Z" fill="#4F84E0" stroke="#4F84E0" stroke-width="0.55"/>
</svg>
