<svg width="60" height="60" viewBox="0 0 60 60" fill="none" xmlns="http://www.w3.org/2000/svg">
<path d="M18.0373 7.0513C18.0373 7.0513 20.8086 7.0541 23.2482 7.05114C24.8139 7.05812 25.0344 7.05427 26.5267 7.05386C27.4664 7.05355 28.8131 6.71546 29.1599 7.7372C28.9931 8.51448 28.5633 8.62202 27.8179 8.62806C27.862 12.1912 27.8221 15.7601 27.8225 19.3238L27.8229 23.5626C27.8232 25.0166 27.9682 26.9115 27.5405 28.2797C26.8365 30.5317 24.9096 31.937 22.6135 32.2148C22.2876 32.2542 21.3064 32.2648 21.0839 32.399C21.0839 32.399 21.0839 36.2337 21.0839 38.8557C21.0839 43.3268 19.3968 47.0438 21.4055 50.3001C22.3323 51.8025 24.2268 52.6553 25.9623 52.2794C28.0439 51.8284 28.7878 49.7367 29.843 48.163C32.0678 44.8454 34.5853 44.3651 38.284 43.3593C43.1423 42.0383 47.9896 37.4957 49.2014 32.1185C47.7454 32.0074 47.7842 32.1447 47.0633 31.785C45.5774 31.1703 44.5099 28.9849 43.8045 27.5124C43.1573 26.1614 43.2963 24.3445 44.7884 23.6407C44.3972 23.0798 42.7242 20.7938 44.1417 20.4676C44.7386 20.3303 45.1463 21.1867 45.3928 21.6027L45.8802 22.4299C45.943 22.5386 46.0224 22.7452 46.1294 22.8071L46.2037 22.7734C46.9642 22.3339 47.9146 22.2571 48.7241 22.6184C49.937 23.1598 50.2915 24.5145 50.828 25.602C51.5292 27.023 52.3678 28.3443 51.6201 29.9685L51.6352 29.9939C51.6201 30.4838 50.828 31.2665 50.828 31.2665C50.828 31.2665 51.3624 31.9178 49.4511 35.8402C48.046 38.7238 42.9624 43.6814 38.1642 45.0073C36.4748 45.4742 34.6241 45.8663 33.1634 46.882C30.6294 48.6439 30.3751 51.6596 27.7935 53.2364C25.0243 54.9278 21.5036 53.4772 19.9244 50.8624C18.003 47.6814 19.5318 43.3593 19.5318 38.8557C19.5318 35.734 19.5318 32.4705 19.5318 32.4705C19.506 32.4118 18.0111 32.326 17.7473 32.2921C15.3471 31.9836 13.2966 30.1629 12.8424 27.7688C12.6796 26.9105 12.7449 25.964 12.745 25.091L12.7457 13.375C12.7458 11.8124 12.7152 10.244 12.7767 8.6826C10.8217 8.66203 11.3645 7.17604 12.0514 7.0775C12.6591 6.99031 13.3683 7.05284 13.9909 7.05314L18.0373 7.0513ZM19.5895 7.05812L20.2981 7.05458C20.3945 7.05181 22.4863 7.11017 22.5652 7.05215C24.2517 7.05185 19.5895 7.05812 19.5895 7.05812ZM14.3217 8.62161C14.3084 10.1823 14.3531 11.7491 14.301 13.3086C15.7051 12.9938 17.0886 12.8944 18.5042 13.2259C20.631 13.7239 23.5189 15.9567 25.6467 14.8983C25.8605 14.7671 26.0602 14.6267 26.2593 14.4741C26.3235 12.5383 26.3223 10.5594 26.2654 8.62304L14.3217 8.62161ZM16.2602 14.5811C15.5974 14.6475 14.9838 14.8755 14.334 15.0025C14.2936 16.0033 14.3155 17.0109 14.3158 18.0125L14.3141 25.6721C14.3137 26.2623 14.2723 26.8852 14.3782 27.467C14.7844 29.6993 16.8637 30.8084 18.9937 30.8798C20.7016 30.937 22.6007 30.9747 24.1358 30.1291C26.5437 28.6895 26.2758 26.7688 26.2745 24.3568L26.2752 19.4811C26.2748 18.4435 26.2354 17.3854 26.3254 16.3509C22.4346 18.0096 19.7697 14.1518 16.2602 14.5811ZM47.6283 23.9405C46.9989 24.1463 45.3976 25.0327 45.0952 25.615C44.7989 26.1855 45.2997 26.9468 45.5534 27.4446C46.0208 28.362 46.61 30.1018 47.7842 30.2629C48.5219 30.2846 49.2078 30.2045 49.7682 29.6747C50.8733 28.6296 49.9677 27.3883 49.4511 26.3208C49.1081 25.612 48.6111 23.9038 47.6283 23.9405Z" fill="#4F84E0"/>
<path d="M18.0373 7.0513C18.0373 7.0513 20.8086 7.0541 23.2482 7.05114M18.0373 7.0513L13.9909 7.05314C13.3683 7.05284 12.6591 6.99031 12.0514 7.0775C11.3645 7.17604 10.8217 8.66203 12.7767 8.6826C12.7152 10.244 12.7458 11.8124 12.7457 13.375L12.745 25.091C12.7449 25.964 12.6796 26.9105 12.8424 27.7688C13.2966 30.1629 15.3471 31.9836 17.7473 32.2921C18.0111 32.326 19.506 32.4118 19.5318 32.4705C19.5318 32.4705 19.5318 35.734 19.5318 38.8557C19.5318 43.3593 18.003 47.6814 19.9244 50.8624C21.5036 53.4772 25.0243 54.9278 27.7935 53.2364C30.3751 51.6596 30.6294 48.6439 33.1634 46.882C34.6241 45.8663 36.4748 45.4742 38.1642 45.0073C42.9624 43.6814 48.046 38.7238 49.4511 35.8402C51.3624 31.9178 50.828 31.2665 50.828 31.2665C50.828 31.2665 51.6201 30.4838 51.6352 29.9939L51.6201 29.9685C52.3678 28.3443 51.5292 27.023 50.828 25.602C50.2915 24.5145 49.937 23.1598 48.7241 22.6184C47.9146 22.2571 46.9642 22.3339 46.2037 22.7734L46.1294 22.8071C46.0224 22.7452 45.943 22.5386 45.8802 22.4299L45.3928 21.6027C45.1463 21.1867 44.7386 20.3303 44.1417 20.4676C42.7242 20.7938 44.3972 23.0798 44.7884 23.6407C43.2963 24.3445 43.1573 26.1614 43.8045 27.5124C44.5099 28.9849 45.5774 31.1703 47.0633 31.785C47.7842 32.1447 47.7454 32.0074 49.2014 32.1185C47.9896 37.4957 43.1423 42.0383 38.284 43.3593C34.5853 44.3651 32.0678 44.8454 29.843 48.163C28.7878 49.7367 28.0439 51.8284 25.9623 52.2794C24.2268 52.6553 22.3323 51.8025 21.4055 50.3001C19.3968 47.0438 21.0839 43.3268 21.0839 38.8557C21.0839 36.2337 21.0839 32.399 21.0839 32.399C21.3064 32.2648 22.2876 32.2542 22.6135 32.2148C24.9096 31.937 26.8365 30.5317 27.5405 28.2797C27.9682 26.9115 27.8232 25.0166 27.8229 23.5626L27.8225 19.3238C27.8221 15.7601 27.862 12.1912 27.8179 8.62806C28.5633 8.62202 28.9931 8.51448 29.1599 7.7372C28.8131 6.71546 27.4664 7.05355 26.5267 7.05386C25.0344 7.05427 24.8139 7.05812 23.2482 7.05114M18.0373 7.0513L19.5895 7.05812M23.2482 7.05114L20.2981 7.05458M19.5895 7.05812L20.2981 7.05458M19.5895 7.05812C19.5895 7.05812 24.2517 7.05185 22.5652 7.05215C22.4863 7.11017 20.3945 7.05181 20.2981 7.05458M14.3217 8.62161C14.3084 10.1823 14.3531 11.7491 14.301 13.3086C15.7051 12.9938 17.0886 12.8944 18.5042 13.2259C20.631 13.7239 23.5189 15.9567 25.6467 14.8983C25.8605 14.7671 26.0602 14.6267 26.2593 14.4741C26.3235 12.5383 26.3223 10.5594 26.2654 8.62304L14.3217 8.62161ZM16.2602 14.5811C15.5974 14.6475 14.9838 14.8755 14.334 15.0025C14.2936 16.0033 14.3155 17.0109 14.3158 18.0125L14.3141 25.6721C14.3137 26.2623 14.2723 26.8852 14.3782 27.467C14.7844 29.6993 16.8637 30.8084 18.9937 30.8798C20.7016 30.937 22.6007 30.9747 24.1358 30.1291C26.5437 28.6895 26.2758 26.7688 26.2745 24.3568L26.2752 19.4811C26.2748 18.4435 26.2354 17.3854 26.3254 16.3509C22.4346 18.0096 19.7697 14.1518 16.2602 14.5811ZM47.6283 23.9405C46.9989 24.1463 45.3976 25.0327 45.0952 25.615C44.7989 26.1855 45.2997 26.9468 45.5534 27.4446C46.0208 28.362 46.61 30.1018 47.7842 30.2629C48.5219 30.2846 49.2078 30.2045 49.7682 29.6747C50.8733 28.6296 49.9677 27.3883 49.4511 26.3208C49.1081 25.612 48.6111 23.9038 47.6283 23.9405Z" stroke="#4F84E0" stroke-width="0.55"/>
<path d="M19.9111 22.3097C19.4877 22.3129 18.8965 22.4122 18.5512 22.1137C18.0567 21.6862 18.3233 20.9188 18.9205 20.7859C19.6805 20.6167 21.6247 20.7568 22.5162 20.7196C23.2271 20.6758 24.0376 20.7206 24.0687 21.6228C24.0996 22.5224 22.6975 22.3088 22.153 22.3052L19.9111 22.3097Z" fill="#4F84E0" stroke="#4F84E0" stroke-width="0.5"/>
<path d="M23.3295 25.8257C22.7478 25.8148 20.3802 25.9373 19.9763 25.6929C19.2373 25.246 19.7198 24.3638 20.4255 24.2644C21.2727 24.2303 22.6678 24.177 23.4891 24.2908C24.1824 24.7886 24.239 25.8121 23.3295 25.8257Z" fill="#4F84E0" stroke="#4F84E0" stroke-width="0.5"/>
</svg>
