<svg width="60" height="60" viewBox="0 0 60 60" fill="none" xmlns="http://www.w3.org/2000/svg">
<path d="M46.8578 11.0742C46.2568 10.227 45.698 8.61347 47.1069 8.29626C49.1577 8.16429 53.1575 11.5221 53.6471 13.0867C53.8786 13.8266 53.7004 14.6247 52.8741 14.8388C52.0045 15.0642 51.1144 14.4894 50.4105 14.0581C49.2594 14.7823 47.2553 17.2253 46.191 18.2794C46.9772 19.3646 50.3436 24.0716 47.1313 24.3904C46.027 24.4999 44.8896 23.7679 44.07 23.1074C41.825 25.619 39.3262 28.1227 36.9467 30.5012L27.0161 40.4824C24.8485 42.6893 22.2703 45.716 18.8605 45.5772C18.6499 45.5687 18.4247 45.5622 18.2224 45.4995C16.7315 46.5555 15.8813 48.3064 13.7995 47.5038C12.2469 48.979 10.658 50.4215 9.09164 51.8827L7.04609 53.7686C6.67365 54.1124 6.20369 54.6312 5.76765 54.8699C5.48279 54.8792 5.23492 54.8674 5.01759 54.653C4.42042 54.0639 5.44557 53.3528 5.82524 52.997L7.37556 51.5589C9.21686 49.8708 11.1004 48.2093 12.8843 46.4605C11.9692 44.5266 14.1175 43.5045 14.8011 42.3614C15.0993 41.8627 15.0706 41.1535 15.2133 40.5952C15.8546 38.0878 17.6282 36.2518 19.4612 34.5417L36.9394 17.7503C37.3631 17.3375 37.7768 16.9067 38.2416 16.5398C37.5643 15.2486 36.6002 12.2186 39.0189 12.1829C40.4115 12.1624 42.1614 13.8328 43.1117 14.7666L46.8578 11.0742ZM47.6862 9.64704C47.8617 10.0679 48.4518 11.0211 48.2858 11.4618C48.0842 11.9972 44.7323 14.9901 44.0978 15.8366C44.5278 16.2758 44.9108 16.7511 45.2992 17.2271C45.8464 16.6387 46.3968 16.0519 46.9583 15.4772C47.5971 14.8062 48.9316 13.3323 49.6601 12.881C50.5866 12.3072 51.3751 13.1669 52.2407 13.4347C51.6799 12.2997 48.9151 9.96635 47.6862 9.64704ZM38.8264 13.5652C38.7004 14.8131 39.5287 15.7513 39.8418 16.9007C39.4562 17.4272 38.8576 17.8279 38.3844 18.2781L23.6553 32.4724C22.6988 33.3902 21.7544 34.3247 20.7871 35.2307C19.0643 36.8443 17.1377 38.4783 16.5697 40.8909C16.4137 41.5534 16.4855 42.261 16.1306 42.8682C15.7883 43.4539 12.6961 45.9565 14.8191 46.356C15.8614 46.0827 16.628 44.7068 17.6147 44.2339C18.0601 44.0204 18.8452 44.2292 19.3472 44.2105C20.839 44.1548 22.8921 42.7913 23.907 41.707L24.9202 40.6612C25.3026 40.2452 25.7375 39.8834 26.0956 39.4446C25.6673 38.9811 24.8196 38.1499 24.5282 37.6475C24.3311 37.0585 24.9012 36.3926 25.5067 36.7484C25.8784 36.9667 26.6696 38.0691 27.0866 38.5109C27.5919 37.9797 28.1023 37.4523 28.5989 36.9129L29.6277 35.9254C30.036 35.4992 30.4497 35.0783 30.871 34.6648C30.4413 34.1534 29.2227 33.0128 29.2853 32.436C29.3237 32.0822 29.6651 31.7559 30.0316 31.803C30.503 31.8634 31.4713 33.2043 31.8973 33.6441C32.3974 33.1623 32.8938 32.6817 33.3668 32.1728L34.3422 31.1671C34.7626 30.7244 35.2397 30.319 35.6325 29.8534C35.1069 29.2718 33.4188 27.8823 34.2882 27.1267C34.9623 26.5408 36.1904 28.2674 36.6128 28.8416C37.9667 27.5074 39.3158 26.1762 40.6055 24.7784L42.7048 22.5072C42.9825 22.2107 43.4003 21.5072 43.8553 21.5139C44.6582 21.5258 45.7228 22.9158 47.1253 23.0348C46.6006 20.2129 42.2475 15.5013 40.0978 14.0379C39.7108 13.7745 39.3056 13.5567 38.8264 13.5652Z" fill="#4F84E0" stroke="#4F84E0" stroke-width="0.55"/>
</svg>
