<svg width="60" height="60" viewBox="0 0 60 60" fill="none" xmlns="http://www.w3.org/2000/svg">
<path d="M13.1124 39.6711C10.5274 38.0233 14.1062 34.2317 14.7067 32.3689C14.9823 31.5137 14.8756 30.4468 14.8751 29.5624L14.8736 13.8079C14.8741 13.0526 14.8452 12.2586 14.9802 11.5129C15.6106 8.03174 20.0067 7.5931 22.8774 7.51452C23.8196 7.4717 24.77 7.49519 25.7131 7.49525L34.0129 7.495C37.0528 7.49502 42.3639 7.39894 43.4863 10.9343C43.7376 11.7257 43.6821 12.5463 43.6815 13.3649L43.6788 29.0672C43.6751 30.2922 43.6401 31.2041 44.016 32.4066C44.016 32.4066 45.2655 35.3486 44.5463 33.692C45.045 34.5448 48.3414 39.1394 45.7185 39.5339C45.4573 41.4693 45.2343 43.3686 45.15 45.3212C45.0671 47.2425 45.2432 49.2199 45.1494 51.0957C45.1093 51.8967 44.4582 51.7988 43.8213 51.7808C42.8711 51.755 41.9186 51.7677 40.9682 51.7675L15.3448 51.7682C13.5224 51.7848 13.8413 51.5302 13.8451 49.9434C13.8518 47.2022 13.8281 44.5003 13.4617 41.7747C13.367 41.07 13.2147 40.3747 13.1124 39.6711ZM23.4806 8.80495C21.666 8.84201 18.2555 9.01727 16.9552 10.365C16.0022 11.3526 16.1681 12.9043 16.1691 14.1674L16.1699 26.2994C16.1699 27.996 16.4173 31.4979 15.8276 33.0379C15.4408 34.0478 12.8279 37.603 13.6795 38.3997C14.2224 38.9076 33.5303 38.77 35.3467 38.7874L39.4204 38.7847C40.8845 38.7847 43.0573 38.849 44.4945 38.6266C46.6886 38.287 43.8034 34.9989 43.2462 33.9116C42.4399 32.3383 42.3732 30.9494 42.3746 29.2368L42.3765 13.476C42.3776 12.6775 42.4997 11.8248 42.1429 11.0789C41.0057 8.70136 36.5629 8.78823 34.266 8.78817L26.3817 8.78867C25.4156 8.7885 24.4463 8.77255 23.4806 8.80495ZM14.4335 39.8714C15.1549 43.2549 15.2141 47.0314 15.1342 50.4815L43.8657 50.4853L43.8568 49.7894C43.8173 46.5499 43.7498 43.1395 44.4474 39.9609L22.2229 40.0553C21.4968 40.056 20.7843 39.9868 20.0613 39.9725C18.2936 39.9376 16.1322 39.8077 14.4335 39.8714Z" fill="#4F84E0"/>
<path d="M44.016 32.4066C43.6401 31.2041 43.6751 30.2922 43.6788 29.0672L43.6815 13.3649C43.6821 12.5463 43.7376 11.7257 43.4863 10.9343C42.3639 7.39894 37.0528 7.49502 34.0129 7.495L25.7131 7.49525C24.77 7.49519 23.8196 7.4717 22.8774 7.51452C20.0067 7.5931 15.6106 8.03174 14.9802 11.5129C14.8452 12.2586 14.8741 13.0526 14.8736 13.8079L14.8751 29.5624C14.8756 30.4468 14.9823 31.5137 14.7067 32.3689C14.1062 34.2317 10.5274 38.0233 13.1124 39.6711C13.2147 40.3747 13.367 41.07 13.4617 41.7747C13.8281 44.5003 13.8518 47.2022 13.8451 49.9434C13.8413 51.5302 13.5224 51.7848 15.3448 51.7682L40.9682 51.7675C41.9186 51.7677 42.8711 51.755 43.8213 51.7808C44.4582 51.7988 45.1093 51.8967 45.1494 51.0957C45.2432 49.2199 45.0671 47.2425 45.15 45.3212C45.2343 43.3686 45.4573 41.4693 45.7185 39.5339C48.3414 39.1394 45.045 34.5448 44.5463 33.692M44.016 32.4066C44.016 32.4066 45.2655 35.3486 44.5463 33.692M44.016 32.4066L44.5463 33.692M23.4806 8.80495C21.666 8.84201 18.2555 9.01727 16.9552 10.365C16.0022 11.3526 16.1681 12.9043 16.1691 14.1674L16.1699 26.2994C16.1699 27.996 16.4173 31.4979 15.8276 33.0379C15.4408 34.0478 12.8279 37.603 13.6795 38.3997C14.2224 38.9076 33.5303 38.77 35.3467 38.7874L39.4204 38.7847C40.8845 38.7847 43.0573 38.849 44.4945 38.6266C46.6886 38.287 43.8034 34.9989 43.2462 33.9116C42.4399 32.3383 42.3732 30.9494 42.3746 29.2368L42.3765 13.476C42.3776 12.6775 42.4997 11.8248 42.1429 11.0789C41.0057 8.70136 36.5629 8.78823 34.266 8.78817L26.3817 8.78867C25.4156 8.7885 24.4463 8.77255 23.4806 8.80495ZM14.4335 39.8714C15.1549 43.2549 15.2141 47.0314 15.1342 50.4815L43.8657 50.4853L43.8568 49.7894C43.8173 46.5499 43.7498 43.1395 44.4474 39.9609L22.2229 40.0553C21.4968 40.056 20.7843 39.9868 20.0613 39.9725C18.2936 39.9376 16.1322 39.8077 14.4335 39.8714Z" stroke="#4F84E0" stroke-width="0.55"/>
<path d="M20.9923 31.3168C20.1458 31.7009 19.1782 31.6747 18.4491 31.0321C17.5349 30.2264 17.5207 28.6774 17.4474 27.5445C17.2323 24.2208 17.2463 20.6454 17.3056 17.2938C17.3256 16.1653 17.2044 14.7592 18.0123 13.852C19.6091 12.059 25.468 11.5356 27.9063 11.4087C30.8204 11.1451 38.4554 11.7035 40.3592 13.7065C41.4848 14.8905 41.2314 17.525 41.2319 19.0363C41.2328 21.031 41.1981 23.0112 41.1488 25.0046C41.1171 26.2835 41.2487 29.0172 40.244 29.9589C38.2469 31.8307 29.1546 31.3743 26.2875 31.2958C26.0348 31.835 25.7657 32.4101 25.6286 32.9907L25.763 33.2179C28.4705 37.2339 20.9014 37.9467 20.1817 34.2726C19.9597 33.1395 20.7746 32.3665 20.9923 31.3168ZM28.0743 12.6977C25.8591 12.8096 20.2094 13.3503 18.9989 14.6929C18.4708 15.2787 18.6038 16.8027 18.5959 17.5332C18.5594 20.9052 18.5497 24.4734 18.7498 27.8199C18.8132 28.8821 18.8436 30.7252 20.4138 30.0765C20.2402 29.7166 20.0137 29.3867 19.84 29.0282C18.8635 27.0131 20.0546 24.4839 22.0086 23.5753C24.2393 22.5382 26.788 23.5728 27.7496 25.8195C28.3135 27.2985 28.0281 28.8141 27.0585 30.0261C27.5962 30.1008 28.1238 30.0456 28.664 30.0599C30.5857 30.1105 37.6519 30.231 39.1727 29.0925C39.9802 28.488 39.8508 25.1369 39.8733 24.1664C39.9104 22.5682 40.234 15.5937 39.5474 14.7615C38.0262 12.9182 30.7332 12.5833 28.0743 12.6977ZM23.7591 24.475C22.1696 24.5858 20.6719 25.9263 20.8109 27.6029C20.954 29.3266 22.8681 29.8335 21.9513 32.5346C21.6936 33.2939 21.0925 34.1671 21.8757 34.8261C22.3762 35.2473 23.0933 35.3317 23.7222 35.3404C24.24 35.3137 24.724 35.2043 25.0605 34.7779C22.9792 30.9797 26.758 30.0637 26.7414 27.2685C26.7323 25.7279 25.2818 24.4284 23.7591 24.475Z" fill="#4F84E0" stroke="#4F84E0" stroke-width="0.55"/>
<path d="M35.808 36.7913C34.8601 36.827 33.8754 36.6825 33.1165 36.062C32.4603 35.5256 32.2607 34.604 32.84 33.9382C33.3978 33.297 34.2963 33.1488 35.0978 33.0884C36.7411 32.958 39.5257 34.1491 38.0326 35.9026C37.5039 36.5235 36.5779 36.7154 35.808 36.7913ZM35.003 34.4058C34.5255 34.4604 34.1387 34.5173 33.7678 34.8516C34.2441 35.4995 35.1669 35.5942 35.9123 35.5129C36.3817 35.4498 36.7799 35.306 37.1173 34.9607C36.5979 34.4425 35.7132 34.3161 35.003 34.4058Z" fill="#4F84E0" stroke="#4F84E0" stroke-width="0.55"/>
</svg>
