<svg width="24" height="25" viewBox="0 0 24 25" fill="none" xmlns="http://www.w3.org/2000/svg">
<path d="M20.62 8.95C19.57 4.33 15.54 2.25 12 2.25C12 2.25 12 2.25 11.99 2.25C8.45997 2.25 4.41997 4.32 3.36997 8.94C2.19997 14.1 5.35997 18.47 8.21997 21.22C9.27997 22.24 10.64 22.75 12 22.75C13.36 22.75 14.72 22.24 15.77 21.22C18.63 18.47 21.79 14.11 20.62 8.95ZM12 13.96C10.26 13.96 8.84997 12.55 8.84997 10.81C8.84997 9.07 10.26 7.66 12 7.66C13.74 7.66 15.15 9.07 15.15 10.81C15.15 12.55 13.74 13.96 12 13.96Z" fill="white"/>
</svg>
