<svg width="216" height="66" viewBox="0 0 216 66" fill="none" xmlns="http://www.w3.org/2000/svg">
<circle cx="30.8571" cy="31.0002" r="27.7714" stroke="#4F84E0" stroke-width="6.17143"/>
<path d="M20.5879 38.6572V23.9692H25.4979V29.152H29.9882V23.9692H34.8982V38.6572H29.9882V33.3905H25.4979V38.6572H20.5879ZM40.117 38.6572L46.307 23.8643H51.175L57.365 38.6572H52.0353L51.2589 36.6848H46.1181L45.3628 38.6572H40.117ZM47.3561 33.2017H50.0419L48.699 29.6346L47.3561 33.2017ZM62.5856 38.6572V23.9692H69.1952C73.098 23.9692 75.7628 25.7108 75.7628 29.194V29.2359C75.7628 32.782 73.056 34.6705 69.0903 34.6705H67.4956V38.6572H62.5856ZM67.4956 31.1663H68.8175C70.0765 31.1663 70.9158 30.6208 70.9158 29.5507V29.5087C70.9158 28.4386 70.1604 27.893 68.8385 27.893H67.4956V31.1663ZM81.4226 38.6572V23.9692H86.3326V29.7185L90.5292 23.9692H96.2365L90.5711 31.1034L96.4254 38.6572H90.4662L86.3326 33.0338V38.6572H81.4226ZM107.652 38.972C103.12 38.972 99.6575 35.6357 99.6575 31.3552V31.3132C99.6575 27.0537 103.162 23.6545 107.694 23.6545C112.226 23.6545 115.688 26.9908 115.688 31.2713V31.3132C115.688 35.5727 112.184 38.972 107.652 38.972ZM107.694 34.6285C109.561 34.6285 110.736 33.0758 110.736 31.3552V31.3132C110.736 29.5716 109.54 27.9979 107.652 27.9979C105.785 27.9979 104.609 29.5507 104.609 31.2713V31.3132C104.609 33.0548 105.806 34.6285 107.694 34.6285ZM130.368 23.8643L136.495 38.6572H131.04L128.018 30.5998L124.975 38.6572H119.625L125.752 23.8643H130.368ZM148.441 38.972C143.908 38.972 140.446 35.6357 140.446 31.3552V31.3132C140.446 27.0537 143.95 23.6545 148.483 23.6545C153.015 23.6545 156.477 26.9908 156.477 31.2713V31.3132C156.477 35.5727 152.973 38.972 148.441 38.972ZM148.483 34.6285C150.35 34.6285 151.525 33.0758 151.525 31.3552V31.3132C151.525 29.5716 150.329 27.9979 148.441 27.9979C146.573 27.9979 145.398 29.5507 145.398 31.2713V31.3132C145.398 33.0548 146.594 34.6285 148.483 34.6285ZM162.426 38.6572V23.9692H174.24V28.1028H167.336V38.6572H162.426ZM194.619 38.6572H189.709V31.5021L184.149 38.6572H179.931V23.9692H184.841V30.8096L190.171 23.9692H194.619V38.6572ZM214.286 23.9692V38.6572H209.376V34.4607H208.201L205.515 38.6572H199.913L203.27 33.6004C201.193 32.6561 200.479 30.8936 200.479 29.2149V29.173C200.479 25.8787 203.186 23.9692 207.131 23.9692H214.286ZM209.376 28.0819H207.236C206.082 28.0819 205.368 28.5855 205.368 29.5087V29.5507C205.368 30.4949 206.103 30.9565 207.278 30.9565H209.376V28.0819Z" fill="#2D2D33"/>
</svg>
