<svg width="62" height="76" viewBox="0 0 62 76" fill="none" xmlns="http://www.w3.org/2000/svg">
<path fill-rule="evenodd" clip-rule="evenodd" d="M61.0283 23.4587C54.005 -7.573 8.03085 -7.60884 0.971682 23.4228C-3.14915 41.6262 8.17418 57.0703 18.0642 66.602C18.8302 67.3403 19.5471 68.0388 20.2216 68.6961C30.0575 78.2798 30.8923 79.0932 43.9 66.602C53.8259 57.0703 65.1492 41.662 61.0283 23.4587ZM42.1806 29.9437C42.1806 36.1182 37.1751 41.1237 31.0006 41.1237C24.826 41.1237 19.8206 36.1182 19.8206 29.9437C19.8206 23.7691 24.826 18.7637 31.0006 18.7637C37.1751 18.7637 42.1806 23.7691 42.1806 29.9437Z" fill="#4F84E0"/>
</svg>
