<svg width="33" height="32" viewBox="0 0 33 32" fill="none" xmlns="http://www.w3.org/2000/svg">
<path d="M29.7933 24.4398C29.7933 24.9198 29.6866 25.4132 29.46 25.8932C29.2333 26.3732 28.94 26.8265 28.5533 27.2532C27.9 27.9732 27.18 28.4932 26.3666 28.8265C25.5666 29.1598 24.7 29.3332 23.7666 29.3332C22.4066 29.3332 20.9533 29.0132 19.42 28.3598C17.8866 27.7065 16.3533 26.8265 14.8333 25.7198C13.3 24.5998 11.8466 23.3598 10.46 21.9865C9.08663 20.5998 7.84663 19.1465 6.73996 17.6265C5.64663 16.1065 4.76663 14.5865 4.12663 13.0798C3.48663 11.5598 3.16663 10.1065 3.16663 8.71984C3.16663 7.81317 3.32663 6.9465 3.64663 6.1465C3.96663 5.33317 4.47329 4.5865 5.17996 3.91984C6.03329 3.07984 6.96663 2.6665 7.95329 2.6665C8.32663 2.6665 8.69996 2.7465 9.03329 2.9065C9.37996 3.0665 9.68663 3.3065 9.92663 3.65317L13.02 8.01317C13.26 8.3465 13.4333 8.65317 13.5533 8.9465C13.6733 9.2265 13.74 9.5065 13.74 9.75984C13.74 10.0798 13.6466 10.3998 13.46 10.7065C13.2866 11.0132 13.0333 11.3332 12.7133 11.6532L11.7 12.7065C11.5533 12.8532 11.4866 13.0265 11.4866 13.2398C11.4866 13.3465 11.5 13.4398 11.5266 13.5465C11.5666 13.6532 11.6066 13.7332 11.6333 13.8132C11.8733 14.2532 12.2866 14.8265 12.8733 15.5198C13.4733 16.2132 14.1133 16.9198 14.8066 17.6265C15.5266 18.3332 16.22 18.9865 16.9266 19.5865C17.62 20.1732 18.1933 20.5732 18.6466 20.8132C18.7133 20.8398 18.7933 20.8798 18.8866 20.9198C18.9933 20.9598 19.1 20.9732 19.22 20.9732C19.4466 20.9732 19.62 20.8932 19.7666 20.7465L20.78 19.7465C21.1133 19.4132 21.4333 19.1598 21.74 18.9998C22.0466 18.8132 22.3533 18.7198 22.6866 18.7198C22.94 18.7198 23.2066 18.7732 23.5 18.8932C23.7933 19.0132 24.1 19.1865 24.4333 19.4132L28.8466 22.5465C29.1933 22.7865 29.4333 23.0665 29.58 23.3998C29.7133 23.7332 29.7933 24.0665 29.7933 24.4398Z" fill="#4F84E0"/>
</svg>
