<svg width="30" height="27" viewBox="0 0 30 27" fill="none" xmlns="http://www.w3.org/2000/svg">
<path d="M14.3062 0.944863C14.6188 0.0522432 15.8812 0.0522395 16.1938 0.944859L19.0287 9.03954C19.1692 9.44054 19.5477 9.70901 19.9725 9.70901H28.9774C29.9641 9.70901 30.3545 10.9867 29.5363 11.5382L22.3834 16.3597C22.0064 16.6138 21.8483 17.0903 21.9986 17.5194L24.7605 25.406C25.0786 26.3143 24.0558 27.1036 23.2578 26.5657L15.8089 21.5448C15.4711 21.3171 15.0289 21.3171 14.6911 21.5448L7.24218 26.5657C6.44418 27.1036 5.42136 26.3142 5.73946 25.406L8.50148 17.5194C8.65177 17.0903 8.49365 16.6138 8.11663 16.3597L0.963735 11.5382C0.14549 10.9867 0.535893 9.70901 1.52267 9.70901H10.5275C10.9524 9.70901 11.3309 9.44053 11.4713 9.03954L14.3062 0.944863Z" fill="#4F84E0"/>
</svg>
