<svg width="33" height="29" viewBox="0 0 33 29" fill="none" xmlns="http://www.w3.org/2000/svg">
<path d="M15.4722 1.94486C15.7848 1.05224 17.0472 1.05224 17.3598 1.94486L20.1947 10.0395C20.3352 10.4405 20.7137 10.709 21.1385 10.709H30.1434C31.1301 10.709 31.5205 11.9867 30.7023 12.5382L23.5494 17.3597C23.1724 17.6138 23.0143 18.0903 23.1646 18.5194L25.9265 26.406C26.2446 27.3143 25.2218 28.1036 24.4238 27.5657L16.9749 22.5448C16.6371 22.3171 16.1949 22.3171 15.8571 22.5448L8.4082 27.5657C7.61019 28.1036 6.58738 27.3142 6.90547 26.406L9.6675 18.5194C9.81779 18.0903 9.65966 17.6138 9.28264 17.3597L2.12975 12.5382C1.31151 11.9867 1.70191 10.709 2.68868 10.709H11.6935C12.1184 10.709 12.4969 10.4405 12.6373 10.0395L15.4722 1.94486Z" stroke="url(#paint0_linear_361_2451)" stroke-width="2" stroke-linecap="round" stroke-linejoin="round"/>
<defs>
<linearGradient id="paint0_linear_361_2451" x1="16.416" y1="-0.75" x2="16.416" y2="29.25" gradientUnits="userSpaceOnUse">
<stop stop-color="#5188ED"/>
<stop offset="1" stop-color="#306DE5"/>
</linearGradient>
</defs>
</svg>
