<svg width="60" height="60" viewBox="0 0 60 60" fill="none" xmlns="http://www.w3.org/2000/svg">
<path d="M18.691 26.375C17.0368 22.8481 15.0031 15.0522 20.2465 13.5795C21.337 13.2733 21.0047 13.4389 21.8391 12.6195C23.8149 10.6792 27.3477 10.089 29.9932 9.97392C32.3666 9.81689 36.0235 10.3168 37.9574 11.7904C38.7844 12.4206 39.2643 13.3112 38.5509 14.2134C42.5093 16.4309 43.7902 20.2029 42.4817 24.5117C42.2899 25.1432 42.019 25.746 41.7679 26.3553C43.7567 27.9169 42.4312 31.3251 40.8044 32.6274C40.2317 33.0859 39.7047 33.1695 38.9902 33.0936C38.5321 34.58 37.7428 35.9079 36.7596 37.105C36.4786 37.4471 36.1194 37.7193 35.8654 38.0845C35.6267 40.3724 37.3517 41.5719 39.244 42.1422C43.3391 43.3761 47.7786 45.219 49.999 49.0973C50.5358 50.0349 49.7296 50.5912 49.1948 50.2233C48.8943 50.0167 48.2059 48.9026 47.9128 48.5319C45.5276 45.5145 41.6057 44.3252 38.0781 43.2228C36.4238 45.8846 33.1516 48.6974 29.8315 48.642C26.6935 48.5837 23.7022 45.761 22.0291 43.2356C18.2074 44.3978 13.8969 45.8708 11.5518 49.3371C11.2928 49.72 11.0266 50.3552 10.4784 50.3422C9.00712 50.307 10.5198 48.4273 10.8087 48.0464C12.9851 45.177 16.4105 43.6348 19.7297 42.5019C22.144 41.6779 24.0543 41.2605 24.1746 38.1488C23.8379 37.6781 23.4003 37.2713 23.034 36.8211C22.1416 35.7242 21.5063 34.4755 20.9893 33.1648C17.5491 33.23 15.833 27.3537 18.691 26.375ZM29.8784 11.3507C27.6689 11.466 24.1244 12.0893 22.583 13.8119C21.3486 15.1913 21.8778 14.4813 20.2903 15.06C16.858 16.3113 18.5101 23.0563 19.7889 25.4317C19.761 23.5389 20.1021 21.7039 21.4626 20.2934C23.2813 18.4077 26.2192 18.1751 28.132 20.0591C28.5132 20.4346 28.853 20.9033 29.289 21.214C29.4068 21.1719 29.3399 21.0279 29.5234 21.1115C30.3505 21.4883 31.1295 22.7919 29.6209 23.1426C28.9757 23.2926 27.1573 23.8783 26.932 22.8656C26.8241 22.3815 27.3559 22.04 27.6929 21.8118C26.356 19.0314 22.5151 19.8836 21.4918 22.8501C20.9314 24.4751 21.2613 26.3717 21.4406 28.0371C21.8635 31.9625 22.4488 35.0211 25.7789 37.6774C29.6709 40.7023 33.0609 39.6974 36.0022 35.886C37.9931 33.3061 38.2468 30.7391 38.4439 27.5966C38.5287 26.2429 38.9648 24.4988 37.7035 23.5434C35.9604 22.2228 32.8039 23.5793 32.6394 22.3916C32.5353 21.6396 33.4323 21.5431 33.9696 21.5055C36.5678 21.3232 39.7719 21.8863 39.9609 25.046C39.992 25.5671 39.9426 26.0882 39.9242 26.6087C41.1343 25.2615 41.6577 22.8092 41.5584 21.0367C41.3743 17.7527 39.0604 15.4684 35.9977 14.6086C35.572 14.4892 33.7107 14.3003 34.5616 13.34C35.0454 12.7941 36.5753 13.1362 37.2262 13.1476C35.9654 11.4979 31.9012 11.2815 29.8784 11.3507ZM29.5337 21.3136L29.4309 21.3625C29.4273 21.4326 29.4325 21.4227 29.4698 21.4758L29.57 21.3919C29.5686 21.3328 29.5789 21.3597 29.5337 21.3136ZM41.0413 27.7375C40.5921 27.9675 40.1727 28.2586 39.7363 28.5128C39.7226 28.7795 39.4368 31.6167 39.4604 31.664C39.5751 31.68 39.6813 31.665 39.7945 31.6418C40.9084 31.1226 42.0925 27.8994 41.0413 27.7375ZM18.9173 27.7567C18.1013 28.9064 19.1231 31.231 20.2707 31.7521C20.3557 31.7589 20.4494 31.7791 20.5287 31.7416C20.5885 31.3144 20.2222 29.139 20.1797 28.4034C19.6536 28.2192 19.3656 27.9429 18.9173 27.7567ZM25.4294 39.1073C25.1956 40.5053 24.388 41.7055 23.2925 42.5913C24.3333 44.4899 26.7825 46.5053 28.8626 47.111C30.9115 47.7076 32.8725 46.5526 34.4037 45.2893C35.3145 44.5344 36.2372 43.6854 36.7766 42.6143C35.7082 41.7991 34.7815 40.4833 34.5263 39.1492C32.2142 41.091 29.0159 41.4314 26.4599 39.7945C26.1132 39.5724 25.7822 39.3177 25.4294 39.1073Z" fill="#4F84E0" stroke="#4F84E0" stroke-width="0.55"/>
</svg>
