<svg width="88" height="21" viewBox="0 0 88 21" fill="none" xmlns="http://www.w3.org/2000/svg">
<g clip-path="url(#clip0_361_2452)">
<path fill-rule="evenodd" clip-rule="evenodd" d="M7.72283 4.74047H6.49115C4.25492 4.74047 3.07762 5.87284 3.07762 7.5522C3.07762 9.45547 3.89341 10.3351 5.56978 11.4707L6.94863 12.3984L2.96565 18.3481H0L3.57029 13.0253C1.51002 11.5539 0.35511 10.1304 0.35511 7.70254C0.35511 4.6669 2.46017 2.61328 6.46236 2.61328H10.4453V18.3481H7.71324V4.74047H7.72283ZM21.7065 6.96042V18.3449H19.016V13.5947H15.4169V18.3449H12.7264V6.96042H15.4169V11.4675H19.016V6.96042H21.7065ZM33.8634 20.9423H31.3712V18.3353H25.3248V20.9423H22.8326V16.2145H23.6772C24.6241 14.3112 24.8129 10.7126 24.8129 7.92966V6.95403H32.6669V16.2113H33.8666V20.9391L33.8634 20.9423ZM29.9732 9.08761H27.1227V9.42349C27.1227 11.3907 26.9179 14.4936 26.1661 16.2177H29.97V9.08761H29.9732ZM39.9066 18.5624C36.4675 18.5624 34.5192 16.6399 34.5192 12.6766C34.5192 9.23796 36.0836 6.72691 39.366 6.72691C42.0565 6.72691 43.8001 8.22394 43.8001 12.1808V13.6043H37.3057C37.4177 15.5076 38.1663 16.4352 40.137 16.4352C41.4487 16.4352 42.8531 15.9394 43.6881 15.3668V17.5676C42.9011 18.1114 41.6342 18.5592 39.9098 18.5592L39.9066 18.5624ZM37.3025 11.6179H41.0616V11.3939C41.0616 9.97048 40.6521 8.8637 39.318 8.8637C38.0351 8.8509 37.3793 9.80734 37.3057 11.6179H37.3025ZM48.3045 12.7534V18.3481H45.6044V6.96042H48.3045V12.2064L52.1147 6.96042H54.834L51.0302 12.2064L55.3491 18.3353H52.2875L48.3045 12.7502V12.7534ZM55.1924 12.6607C55.1924 16.464 56.9359 18.5624 60.5382 18.572C61.7827 18.572 62.6656 18.3481 63.3215 17.8683V15.6739C62.6465 16.1537 61.8307 16.4416 60.6982 16.4416C58.7754 16.4416 57.9788 14.9446 57.9788 12.5903C57.9788 10.1176 58.9546 8.8509 60.7141 8.8509C61.7539 8.8509 62.7776 9.21557 63.3215 9.55464V7.26751C62.7584 6.95083 61.7603 6.72372 60.4262 6.72372C56.9839 6.72372 55.1956 9.18678 55.1956 12.6543L55.1924 12.6607Z" fill="black"/>
<path fill-rule="evenodd" clip-rule="evenodd" d="M79.5989 0C74.9601 0 71.201 3.76497 71.201 8.4032C71.201 10.6264 72.084 12.7631 73.658 14.3401C75.1808 15.8628 78.7607 18.0635 78.9719 20.373C79.0039 20.7185 79.2534 21 79.5989 21C79.9444 21 80.1972 20.7185 80.226 20.373C80.4371 18.0603 84.017 15.8628 85.5366 14.3433C87.1106 12.7695 87.9968 10.6295 87.9968 8.4032C88 3.76497 84.2377 0 79.5989 0Z" fill="#FF4433"/>
<path opacity="0.25" fill-rule="evenodd" clip-rule="evenodd" d="M79.5989 11.3492C81.2273 11.3492 82.5486 10.0281 82.5486 8.39996C82.5486 6.77178 81.2273 5.45068 79.5989 5.45068C77.9705 5.45068 76.6525 6.77178 76.6525 8.39996C76.6525 10.0281 77.9737 11.346 79.5989 11.346V11.3492Z" fill="black"/>
</g>
<defs>
<clipPath id="clip0_361_2452">
<rect width="88" height="21" fill="white"/>
</clipPath>
</defs>
</svg>
